<?xml version="1.0" standalone="no"?>
<!DOCTYPE svg PUBLIC "-//W3C//DTD SVG 1.1//EN" "http://www.w3.org/Graphics/SVG/1.1/DTD/svg11.dtd" >
<svg xmlns="http://www.w3.org/2000/svg" xmlns:xlink="http://www.w3.org/1999/xlink" version="1.1">
<metadata>
Created by FontForge 20190801 at Mon Aug 31 14:13:42 1998
 By www-data
Copyright (c) 1995 Agfa Division, Bayer Corporation. All rights reserved. Digital data is the property of Agfa.
</metadata>
<defs>
<font id="AgfaRegular" horiz-adv-x="1026" >
  <font-face 
    font-family="AgfaRegular"
    font-weight="400"
    font-stretch="normal"
    units-per-em="2048"
    panose-1="2 11 5 3 4 5 4 3 2 4"
    ascent="1638"
    descent="-410"
    x-height="971"
    cap-height="1407"
    bbox="-428 -481 2330.1 1915"
    underline-thickness="105"
    underline-position="-458"
    unicode-range="U+0020-F004"
  />
<missing-glyph horiz-adv-x="1024" 
d="M128 0v1597h768v-1597h-768zM256 128h512v1341h-512v-1341z" />
    <glyph glyph-name=".notdef" horiz-adv-x="1024" 
d="M128 0v1597h768v-1597h-768zM256 128h512v1341h-512v-1341z" />
    <glyph glyph-name=".null" horiz-adv-x="0" 
 />
    <glyph glyph-name="nonmarkingreturn" horiz-adv-x="532" 
 />
    <glyph glyph-name="space" unicode=" " horiz-adv-x="532" 
 />
    <glyph glyph-name="exclam" unicode="!" horiz-adv-x="569" 
d="M260 0v201h201v-201h-201zM296 384l-30 1023h189l-27 -1023h-132z" />
    <glyph glyph-name="quotedbl" unicode="&#x22;" horiz-adv-x="721" 
d="M266 968h-116l-33 439h185zM565 968h-116l-33 439h185z" />
    <glyph glyph-name="numbersign" unicode="#" horiz-adv-x="1178" 
d="M631 0h-130l114 435h-170l-113 -435h-133l112 435h-192l29 113h195l47 192h-192l30 113h194l114 442h130l-114 -442h175l112 442h129l-115 -442h204l-30 -113h-204l-48 -192h205l-32 -113h-207zM645 548l48 192h-170l-49 -192h171z" />
    <glyph glyph-name="dollar" unicode="$" horiz-adv-x="1100" 
d="M589 733v0l30 -9q60 -19 116 -42q126 -54 186 -137q57 -84 58 -204q-1 -129 -62 -213q-87 -124 -292 -147l-36 -3v-171h-93v171l-31 2q-49 3 -101 18q-152 37 -214 170q-19 39 -26 81l-4 27h181l3 -22q24 -137 169 -173l23 -4v574v0l-30 7q-46 11 -95 32q-65 25 -100 49
q-45 26 -79 78q-54 79 -55 190q1 248 231 332q51 19 98 24l30 2v151h93v-151l40 -2q93 -11 176 -61q40 -25 72 -57q59 -61 73 -145l4 -28h-181q0 15 -1 23q-4 59 -52.5 109t-105.5 59l-25 3v-533zM589 617v0v-540l29 6q178 47 180 259q-3 95 -46 158q-47 65 -141 108z
M496 1266l-23 -5q-151 -37 -155 -249q0 -92 36 -149q18 -32 54 -54q28 -22 64 -35l24 -10v0v502z" />
    <glyph glyph-name="percent" unicode="%" horiz-adv-x="1671" 
d="M1605 318.5q-5 -50.5 -15 -93.5q-51 -210 -219 -242q-27 -6 -57 -5q-193 2 -266 178q-28 64 -39 173q-6 51 -5 103q-3 400 246 449q31 6 58 6t57 -6q250 -49 245 -468q0 -44 -5 -94.5zM1480 420q-1 58 -3 101q-18 286 -174 286q-130 4 -159 -200q-7 -41 -8 -85l-2 -74
l3 -97q2 -46 7 -79q30 -214 167 -214q129 4 159 204l8 80zM679 0h-115l424 1295h115zM658.5 749.5q-4.5 -52.5 -15.5 -94.5q-49 -210 -219 -242q-27 -6 -58 -5q-240 3 -291 263q-10 42 -13 88q-6 51 -5 112q-1 53 4 102q19 294 242 338q31 6 58 6t57 -6q250 -49 245 -467
q0 -42 -4.5 -94.5zM533 850q-2 220 -51 308q-42 79 -126 79q-154 5 -167 -285l-2 -90l2 -81q16 -292 174 -293q130 4 160 204l8 80z" />
    <glyph glyph-name="ampersand" unicode="&#x26;" horiz-adv-x="1329" 
d="M1073 346l-1 -66q0 -33 3 -63q8 -143 155 -140q43 -1 75 15v-99l-30 -6q-50 -10 -98 -9q-250 0 -258 204l-1 63l-1 64v364h-279q-39 0 -73 -1q-43 -1 -80.5 -7t-70.5 -24q-41 -21 -67 -55q-54 -66 -56 -199q-1 -65 13 -119q9 -44 37 -83.5t72 -65.5q66 -42 164 -42
q35 -1 80 6q34 3 62 11l28 7v-99l-28 -7q-74 -17 -168 -17q-224 2 -334 114q-58 55 -79.5 125t-21.5 152q-1 56 9 102q19 97 75 158q25 29 65 53q34 22 71 34l26 8v0l-32 10q-204 71 -202 283q0 129 74 214q104 127 321 128q109 -1 191 -22l28 -8v-99l-27 7q-42 11 -78 16
q-46 6 -91 7q-117 -1 -178 -67q-65 -72 -65 -180q-1 -83 44 -146q52 -72 126 -86q34 -9 86 -9l56 -1h302v352l156 99v-451h236v-98h-236v-327z" />
    <glyph glyph-name="quotesingle" unicode="'" horiz-adv-x="418" 
d="M264 968h-116l-33 439h185z" />
    <glyph glyph-name="parenleft" unicode="(" horiz-adv-x="569" 
d="M488 1461q-121 -71 -156 -308q-12 -72 -16 -159t-6 -180l-2 -227q-1 -85 1 -132q1 -76 7 -175q22 -385 174 -471l21 -11v-86l-21 5q-182 49 -258 212q-28 56 -43 122q-16 58 -24 130q-9 58 -13 139l-7 144l-2 144l3 197q1 86 7 146l14 139q8 71 22 131q62 272 299 332
l23 5v-86z" />
    <glyph glyph-name="parenright" unicode=")" horiz-adv-x="569" 
d="M79 -191q76 43 122 169q24 68 34.5 139.5t14.5 157.5t7 181l2 226q0 84 -1 133q-4 335 -56 478q-40 118 -125 168l-21 11v86l21 -5q114 -32 187 -107q41 -42 71 -105q28 -58 44 -121q14 -54 23 -130q14 -118 20 -284l2 -146l-3 -195q-2 -85 -7 -145q-21 -255 -67 -366
q-78 -187 -268 -237l-23 -5v86z" />
    <glyph glyph-name="asterisk" unicode="*" horiz-adv-x="645" 
d="M447 1030l71 -122l-92 -53l-71 123l-33 69v0l-34 -68l-72 -124l-91 53l71 122l44 68l-81 -6h-138v100l138 1l81 -6l-44 67l-71 124l90 51l71 -124l36 -72v0l34 72l70 124l92 -52l-71 -123l-44 -67l78 6l141 -1v-100h-141l-78 6z" />
    <glyph glyph-name="plus" unicode="+" horiz-adv-x="1178" 
d="M652 -10h-134v435h-401v134h401v399h134v-399h401v-134h-401v-435z" />
    <glyph glyph-name="comma" unicode="," horiz-adv-x="418" 
d="M245 -251h-132l22 454h185z" />
    <glyph glyph-name="hyphen" unicode="-" horiz-adv-x="836" 
d="M106 416v142h622v-142h-622z" />
    <glyph glyph-name="period" unicode="." horiz-adv-x="418" 
d="M107 0v201h201v-201h-201z" />
    <glyph glyph-name="slash" unicode="/" horiz-adv-x="608" 
d="M183 -288h-145l386 1839h146z" />
    <glyph glyph-name="zero" unicode="0" 
d="M928 339q-16 -67 -44 -125q-111 -236 -361 -236q-450 4 -454 671q1 201 29 319q13 59 47 127q108 220 370 222q110 -1 198 -48q58 -31 97 -80q147 -180 147 -565q-3 -183 -29 -285zM776 627q0 75 -5 152l-11 110q-45 330 -251 329q-256 1 -259 -549q0 -71 3.5 -141
t11.5 -121q44 -331 253 -330q34 -1 64 9q80 23 128 120q55 108 63 307z" />
    <glyph glyph-name="one" unicode="1" 
d="M653 0h-156v1140l-235 -160v140l265 175h126v-1295z" />
    <glyph glyph-name="two" unicode="2" 
d="M888 128v-128h-773v127l28 25q102 93 237 253q139 163 208 280q68 120 90 230q9 44 9 88q1 90 -53.5 152.5t-149.5 62.5q-153 0 -186 -186l-4 -27h-181q1 25 4 37q18 132 136 210q100 66 247 65q50 0 97 -8q126 -21 198.5 -119.5t72.5 -225.5q-1 -59 -16.5 -123t-47 -129
t-76.5 -129q-36 -50 -97 -122l-98 -110q-56 -59 -92 -93l-107 -99l-33 -31h587z" />
    <glyph glyph-name="three" unicode="3" 
d="M638 674q141 -39 194 -153q30 -63 33 -173q-2 -311 -278 -361q-50 -10 -111 -9q-286 3 -365 190q-15 32 -19 68l-3 31h181q-1 -18 1 -26q19 -161 193 -164q216 1 220 261q-5 264 -186 279q-27 2 -65 3h-17v99l29 -1q216 7 215 246q0 35 -5 66q-6 37 -20 71
q-48 117 -169 117q-154 -1 -173 -159l-3 -25h-181l3 28q18 121 131 193q97 61 230 62q62 0 118.5 -13t105.5 -42q54 -33 88 -81q56 -80 56 -206q0 -51 -9 -91q-34 -154 -194 -201l-18 -5z" />
    <glyph glyph-name="four" unicode="4" 
d="M770 0h-156v367h-534v118l516 810h174v-807h226v-121h-226v-367zM614 488v603v0l-378 -603v0h378z" />
    <glyph glyph-name="five" unicode="5" 
d="M348 718v0l11 8q78 53 202 55q211 2 309 -164q32 -54 48 -115t16 -125q1 -189 -119 -297q-111 -101 -304 -102q-321 2 -373 260l-5 29h181q-3 -63 38 -119t104 -66q24 -6 54 -5q126 2 186 88q20 27 33 65q22 58 24 155q0 39 -5 73q-36 225 -222 224q-59 -1 -107 -31
q-56 -34 -72 -82h-154l35 726h621v-121h-471v0z" />
    <glyph glyph-name="six" unicode="6" 
d="M317 642q60 82 154 112q65 21 134 21q280 0 341 -257q16 -65 16 -131q0 -76 -21 -147q-62 -208 -273 -250q-57 -13 -116 -12q-145 0 -236 63q-125 80 -165 277q-26 128 -26 330q-3 442 182 588q51 41 113 59q74 21 158 22q41 0 75 -5q231 -30 276 -253l4 -28h-181l-1 24
q-1 19 -7 39q-15 51 -48 80q-52 50 -115 45l-19 -1q-34 -3 -61 -14q-179 -69 -193 -476l-1 -63l-1 -38zM781 383q-3 98 -33 160q-61 134 -195 133q-100 0 -166.5 -83.5t-63.5 -177.5q0 -93 35 -187q54 -154 201 -151q113 -1 174 102q46 76 48 204z" />
    <glyph glyph-name="seven" unicode="7" 
d="M133 1174v121h761v-126l-476 -1169h-185l481 1174h-581z" />
    <glyph glyph-name="eight" unicode="8" 
d="M685 666q191 -66 225 -241q9 -45 9 -92q0 -285 -277 -342q-60 -14 -122 -13q-72 -1 -140.5 15.5t-118.5 47.5q-154 87 -154 310q-1 113 58 198q68 98 171 117l21 1v0h-16q-41 5 -110 59q-55 43 -74 98q-13 34 -19.5 73t-5.5 77q-3 162 114 257q105 85 273 86
q136 -3 220 -52q156 -92 155 -292q0 -111 -52 -190q-58 -89 -156 -115l-4 -1v0zM738 336q0 39 -6 78q-14 88 -71.5 145t-146.5 57q-185 -4 -220 -204q-7 -33 -6 -66q1 -112 58 -190.5t173 -78.5q107 -1 168 77q51 66 51 182zM713 963q-1 115 -46 174q-60 81 -156 81
q-95 1 -153 -79q-45 -63 -45 -170q-1 -108 42 -174q54 -83 153 -80q136 2 183 123q21 50 22 125z" />
    <glyph glyph-name="nine" unicode="9" 
d="M729 662q-67 -87 -158 -119q-62 -23 -131 -23q-49 -1 -95 12q-62 14 -110 49q-101 68 -132 193q-18 65 -17 136q1 190 105 298t295 109q68 0 129 -17q260 -74 286 -499q4 -58 4 -140q0 -175 -29 -312q-12 -58 -31 -108q-22 -60 -58 -110q-39 -54 -87.5 -88.5
t-103.5 -48.5q-61 -17 -127 -16q-95 1 -158 27q-162 56 -200 232l-5 30h181q-1 -19 1 -27l7 -37q26 -91 113 -116q32 -11 65 -10q220 -5 260 402l4 96l2 64l1 38zM724 876q0 118 -56 224q-62 119 -185 118q-92 1 -147 -70q-52 -65 -64 -153q-6 -33 -5 -69q-2 -52 8 -99
t26 -79q16 -39 47 -68q57 -62 140 -61q97 -2 169 79q66 75 67 178z" />
    <glyph glyph-name="colon" unicode=":" horiz-adv-x="532" 
d="M221 0v201h201v-201h-201zM221 770v201h201v-201h-201z" />
    <glyph glyph-name="semicolon" unicode=";" horiz-adv-x="530" 
d="M347 -251h-132l22 454h185zM226 770v201h201v-201h-201z" />
    <glyph glyph-name="less" unicode="&#x3c;" horiz-adv-x="1178" 
d="M1063 0l-948 418v129l948 414v-130l-807 -352l807 -350v-129z" />
    <glyph glyph-name="equal" unicode="=" horiz-adv-x="1178" 
d="M1059 272h-942v134h942v-134zM1059 578h-942v134h942v-134z" />
    <glyph glyph-name="greater" unicode="&#x3e;" horiz-adv-x="1178" 
d="M115 0v129l807 350l-807 352v130l948 -414v-129z" />
    <glyph glyph-name="question" unicode="?" horiz-adv-x="836" 
d="M436 0h-201v201h201v-201zM248 384v83v60q-1 31 4 58q8 67 50 106l50 48l55 62l62 69l55 64l67 75q19 24 34 72q9 27 9 56q-1 83 -67 132q-55 41 -144 43q-131 0 -250 -80l-22 -16l-1 170l28 9q78 24 171 32l53 2q26 0 54 -2q50 -3 95 -14q101 -24 167.5 -103.5
t68.5 -184.5q0 -46 -13 -90q-23 -80 -117 -188q-18 -21 -78 -83l-66 -70l-49 -55q-61 -71 -62 -160q-2 -22 -1 -51v-44h-153z" />
    <glyph glyph-name="at" unicode="@" horiz-adv-x="2048" 
d="M1131 125q-116 -115 -246 -113q-121 -3 -199 81q-72 77 -72 204q0 143 69 296q65 143 174 252q66 67 149 104q64 29 135 29q159 -2 219 -114q9 -16 19 -38l45 111h177l-171 -428q-69 -170 -110 -284q-15 -38 -14 -70q1 -54 59 -54q27 -1 55 9q167 54 264 215
q91 152 93 333q-1 243 -193 406q-173 147 -430 149q-315 -3 -552 -249q-244 -252 -243 -556q-1 -368 355 -517q165 -71 357 -70q313 -1 564 184l30 23l54 -47l-26 -25q-108 -100 -265 -162q-187 -75 -383 -74q-166 0 -324 52q-229 73 -360 234q-142 175 -141 403
q-1 358 274 636q268 270 639 269q170 0 316 -59q188 -77 304 -232t118 -362q0 -250 -158 -443q-176 -217 -410 -218q-151 -2 -153 144zM777 236q-2 -143 137 -142q122 1 212 148q60 97 117 246q30 77 51 155q19 68 19 123q0 54 -37 92.5t-89 37.5q-130 1 -270 -243
q-104 -181 -134 -349q-7 -35 -6 -68z" />
    <glyph glyph-name="A" unicode="A" horiz-adv-x="1178" 
d="M318 448l-146 -448h-152l474 1407h187l474 -1407h-177l-148 448v0h-512zM793 557v0l-217 694v0l-221 -694v0h438z" />
    <glyph glyph-name="B" unicode="B" horiz-adv-x="1102" 
d="M729 739q125 -30 198.5 -126t74.5 -227q-1 -154 -95 -258.5t-245 -118.5q-62 -7 -139 -8l-116 -1h-233v1407h238l106 -1q70 -2 128 -9q137 -17 218 -114q37 -44 56 -106q17 -55 17 -111q1 -118 -68 -203.5t-184 -115.5v0zM341 109h94q28 -1 76 2q63 2 116 14
q94 19 144.5 94.5t51.5 171.5q1 132 -88 216q-74 70 -221 77q-26 1 -59 1h-39l-75 -1v-575zM341 793l43 1l86 2q59 1 105 12q81 16 137 89q44 57 46 159q0 148 -99 206q-65 38 -234 36h-84v-505z" />
    <glyph glyph-name="C" unicode="C" horiz-adv-x="1102" 
d="M1015 70l-28 -16q-90 -48 -209 -68q-49 -9 -107 -8q-110 -1 -201 31q-196 65 -290 301q-72 181 -73 423q-1 78 9 151q66 545 513 545q71 0 139 -17q127 -32 204 -122q88 -104 97 -218q1 -13 1 -47h-179q0 27 -1 41q-8 122 -85 191q-67 62 -179 63q-227 0 -303 -269
q-24 -81 -32 -176q-6 -57 -5 -125q0 -503 248 -628q68 -36 157 -35q141 -2 286 110q17 12 38 31v-158z" />
    <glyph glyph-name="D" unicode="D" horiz-adv-x="1214" 
d="M174 1407h208q87 0 114 -1q344 -12 478 -193q128 -173 131 -502q0 -102 -13 -199q-68 -502 -595 -511q-46 -2 -113 -1h-210v1407zM341 109l108 -1q57 -1 81 1q266 13 351 252q26 73 35.5 154t9.5 169q0 110 -12 207q-30 242 -152 330q-104 75 -360 77h-61v-1189z" />
    <glyph glyph-name="E" unicode="E" horiz-adv-x="948" 
d="M341 109h532v-109h-699v1407h680v-109h-513v-511h486v-109h-486v-569z" />
    <glyph glyph-name="F" unicode="F" horiz-adv-x="872" 
d="M341 0h-167v1407h681v-109h-514v-511h486v-109h-486v-678z" />
    <glyph glyph-name="G" unicode="G" horiz-adv-x="1253" 
d="M938 1027q0 19 -1 33q-2 60 -27 112q-70 150 -258 148q-155 -1 -244 -112q-119 -145 -121 -475q-1 -114 13 -212q44 -316 226 -398q76 -37 168 -36q55 -1 102 13q60 16 115 56l23 17v506h-328v109h495v-677q-51 -36 -77 -51q-97 -57 -224 -73q-65 -10 -131 -9
q-180 -1 -291 75q-140 95 -196 230q-40 88 -57.5 208.5t-16.5 242.5q1 236 65 390q40 100 108 169q71 74 162.5 105t196.5 31q76 0 149 -16q282 -61 322 -332l6 -54h-179z" />
    <glyph glyph-name="H" unicode="H" horiz-adv-x="1253" 
d="M343 674v-674h-167v1407h167v-624h564v624h167v-1407h-167v674h-564z" />
    <glyph glyph-name="I" unicode="I" horiz-adv-x="532" 
d="M182 1407h167v-1407h-167v1407z" />
    <glyph glyph-name="J" unicode="J" horiz-adv-x="721" 
d="M562 438v-35q-1 -219 -58 -298q-78 -108 -272 -125l-56 -2l-57 2q-43 3 -95 14l-24 5v158l26 -16q88 -53 167 -54q176 0 197 172q6 49 6 88l-1 66v994h163z" />
    <glyph glyph-name="K" unicode="K" horiz-adv-x="1102" 
d="M1096 0h-210l-544 688v0v-688h-167v1407h167v-631v0l508 631h183l-541 -655z" />
    <glyph glyph-name="L" unicode="L" horiz-adv-x="836" 
d="M835 111v-111h-660v1407h167v-1298z" />
    <glyph glyph-name="M" unicode="M" horiz-adv-x="1632" 
d="M1216 1407h238v-1407h-145v1299v0l-418 -1299h-150l-418 1224v0v-1224h-145v1407h238l414 -1207v0z" />
    <glyph glyph-name="N" unicode="N" horiz-adv-x="1290" 
d="M967 1407h145v-1407h-199l-592 1208v0v-1208h-145v1407h199l592 -1207v0v1207z" />
    <glyph glyph-name="O" unicode="O" horiz-adv-x="1253" 
d="M1044 210q-140 -232 -418 -232q-96 0 -168 25q-195 65 -278 279q-37 93 -54 203.5t-16 226.5q-1 110 15.5 220t57.5 209q115 285 454 288q87 0 156 -23q188 -64 280 -281q69 -163 71 -428q-3 -324 -100 -487zM965 667q0 110 -13 224q-10 85 -32 164q-33 117 -105 184
q-89 81 -193 81q-96 0 -177 -67q-73 -60 -109 -157q-49 -136 -47 -381q0 -106 10.5 -196t35.5 -172q20 -71 59 -132t108 -96q59 -33 128 -32q155 2 242 144q68 111 85 280q7 77 8 156z" />
    <glyph glyph-name="P" unicode="P" 
d="M343 0h-167v1407h142l111 1q272 0 381 -61q174 -98 177 -326q-1 -207 -148 -308q-105 -72 -340 -78l-91 -2h-65v-633zM343 742l61 -1l98 3q75 3 132 19q50 13 96 52q76 62 78 211q-5 255 -297 270l-106 2h-62v-556z" />
    <glyph glyph-name="Q" unicode="Q" horiz-adv-x="1253" 
d="M965 97q148 18 237 51l25 10v-158h-546h-80q-90 2 -157 28q-97 34 -163 110q-173 191 -172 585q0 701 527 706q86 0 155 -23q106 -35 178 -116q67 -76 103 -166q69 -177 71 -423q-2 -229 -63 -392q-49 -133 -168 -218v0zM964 679q0 108 -12 213q-21 179 -85 283
q-89 145 -246 145q-134 0 -225 -116q-79 -98 -99 -302q-10 -89 -9 -176q0 -234 55 -387q83 -231 286 -230q150 1 235 131q40 59 62 134q36 125 38 305z" />
    <glyph glyph-name="R" unicode="R" horiz-adv-x="1102" 
d="M342 0h-167v1407h136h129q215 -2 318 -40q73 -28 122 -77q95 -96 96 -250q-3 -258 -276 -325l-55 -12v0l49 -9q159 -40 206 -176q16 -47 25 -87l15 -76l74 -355h-173l-57 288l-15 69q-27 126 -68 178q-58 74 -161 95q-50 9 -100 9h-58h-40v-639zM342 748l55 1
q398 5 400 287q-5 254 -297 261q-39 1 -82 1h-76v-550z" />
    <glyph glyph-name="S" unicode="S" horiz-adv-x="987" 
d="M808 1242q-153 77 -309 78q-103 0 -167 -55q-71 -61 -69 -158q0 -109 70 -169q29 -26 101 -65l124 -69l136 -76q81 -46 135 -104q50 -54 73 -128q17 -56 17 -116q1 -202 -154 -310q-132 -92 -341 -92q-127 -1 -292 34l-35 8v177l27 -16q160 -90 326 -94q208 1 267 147
q23 53 23 118q1 44 -8 70q-30 99 -277 233l-137 74q-78 42 -135 98q-48 45 -71 102q-29 66 -28 143q-2 178 138 276q116 82 307 81q51 0 109 -5q81 -7 154 -22l37 -8v-163z" />
    <glyph glyph-name="T" unicode="T" horiz-adv-x="836" 
d="M500 0h-167v1298h-331v109h829v-109h-331v-1298z" />
    <glyph glyph-name="U" unicode="U" horiz-adv-x="1253" 
d="M1091 527q0 -61 -1 -103q-15 -440 -464 -446q-268 1 -382 170q-42 59 -58 128t-17 150q-2 28 -1 101v880h167v-876l1 -76q0 -52 6 -97q17 -192 171 -249q56 -23 116 -22q53 -1 106 18q164 57 182 245q5 47 6 103l1 79v875h167v-880z" />
    <glyph glyph-name="V" unicode="V" horiz-adv-x="1063" 
d="M628 0h-194l-467 1407h178l402 -1228v0l393 1228h155z" />
    <glyph glyph-name="W" unicode="W" horiz-adv-x="1690" 
d="M1476 1407h142l-260 -1407h-187l-341 1178v0l-314 -1178h-187l-260 1407h165l206 -1203v0l331 1203h145l349 -1196v0z" />
    <glyph glyph-name="X" unicode="X" horiz-adv-x="1063" 
d="M1061 0h-198l-346 589v0l-350 -589h-165l436 725v0l-399 682h194l306 -523v0l304 523h169l-394 -657v0z" />
    <glyph glyph-name="Y" unicode="Y" 
d="M596 0h-167v650l-434 757h192l338 -598v0l334 598h171l-434 -757v-650z" />
    <glyph glyph-name="Z" unicode="Z" horiz-adv-x="987" 
d="M932 109v-109h-883v120l667 1180v0h-632v107h819v-119l-667 -1181v0z" />
    <glyph glyph-name="bracketleft" unicode="[" horiz-adv-x="606" 
d="M570 1449h-216v-1616h216v-109h-369v1834h369v-109z" />
    <glyph glyph-name="backslash" unicode="\" horiz-adv-x="608" 
d="M184 1551l386 -1839h-145l-387 1839h146z" />
    <glyph glyph-name="bracketright" unicode="]" horiz-adv-x="606" 
d="M36 -167h216v1616h-216v109h369v-1834h-369v109z" />
    <glyph glyph-name="asciicircum" unicode="^" horiz-adv-x="760" 
d="M123 1090l196 323h121l197 -323h-125l-129 215l-135 -215h-125z" />
    <glyph glyph-name="underscore" unicode="_" horiz-adv-x="1024" 
d="M0 -236v103h1024v-103h-1024z" />
    <glyph glyph-name="grave" unicode="`" horiz-adv-x="614" 
d="M303 1411l86 -273h-126l-136 273h176z" />
    <glyph glyph-name="a" unicode="a" horiz-adv-x="948" 
d="M619 118q-68 -89 -165 -122q-53 -19 -106 -18q-108 -1 -184 69.5t-78 178.5q0 95 62.5 167t154.5 102q106 35 295 47l36 2v51l-1 66q0 42 -4 75q-17 174 -174 171q-27 0 -52 -5q-106 -19 -121 -138l-5 -45h-165l5 44q36 227 350 230q69 0 132 -17q172 -47 186 -254l2 -76
v-646h-153v138zM634 458l-38 -2q-60 -3 -96 -9q-253 -43 -249 -205q4 -151 153 -155q72 0 134 56q30 25 49.5 55t30.5 67.5t13 84.5q1 15 2 75z" />
    <glyph glyph-name="b" unicode="b" 
d="M311 828q92 166 260 165q123 0 211 -86q48 -48 74 -108q56 -131 58 -323q0 -107 -25 -204q-75 -291 -376 -294q-344 -2 -367 362l-4 127l-1 84v856l153 -1v-609zM749 474q-1 63 -8 134q-7 59 -23 114q-15 49 -43 91q-55 82 -144 82q-71 1 -132 -77q-51 -65 -70 -139
q-14 -50 -20 -122q-6 -55 -5 -107q2 -390 211 -386q236 5 234 410z" />
    <glyph glyph-name="c" unicode="c" horiz-adv-x="872" 
d="M657 671v20q2 218 -172 216q-150 -1 -198 -165q-16 -51 -21 -107q-5 -39 -4 -80l3 -72q5 -74 23 -132q66 -223 244 -274q45 -14 99 -13q71 0 135 22l29 11v-86l-36 -10q-90 -23 -185 -23q-475 2 -477 543q-1 95 21 184q68 286 370 288q181 2 267 -104q30 -36 45.5 -83
t19.5 -98l2 -37h-165z" />
    <glyph glyph-name="d" unicode="d" 
d="M711 1407h153v-1407h-151v187l-17 -37q-93 -172 -272 -172q-59 -1 -113 20q-218 78 -220 484q-1 92 12 172q11 75 47 149q93 192 294 190q124 -1 200 -85q32 -35 53 -80l14 -31v610zM256 472q-1 -74 7 -127q11 -98 50 -168q51 -91 142 -90q72 -1 139 64q52 50 82 134
q19 52 26 109q5 38 5 80q-4 144 -50 254q-65 156 -189 156q-164 3 -202 -256q-10 -64 -10 -156z" />
    <glyph glyph-name="e" unicode="e" horiz-adv-x="920" 
d="M257 550q1 -72 15 -132q14 -70 42 -131q97 -226 319 -223q73 -1 136 20q15 4 46 17v-86q-39 -13 -59 -17q-81 -20 -182 -20q-48 -1 -90 5q-201 24 -305 185q-87 134 -87 353q2 179 57 288q31 66 93 112q94 71 245 72q286 0 336 -264q8 -46 10 -89v-39h-577zM668 696
l-1 22q-12 186 -195 189q-84 0 -141 -53t-67 -134l-3 -24h407z" />
    <glyph glyph-name="f" unicode="f" horiz-adv-x="702" 
d="M394 0h-153v876h-173v95h173v44v50q2 194 78 272q85 86 269 86l58 -2q31 -4 74 -11l25 -5v-109l-29 6q-45 7 -82 11q-16 1 -37 1l-47 -2q-144 -13 -153 -163l-3 -68v-63v-47h276v-95h-276v-876z" />
    <glyph glyph-name="g" unicode="g" 
d="M695 140q-84 -164 -254 -162q-209 3 -292 197q-30 65 -43 141q-16 81 -15 179q1 199 71 328q90 168 275 170q171 2 257 -168l17 -36l1 181l152 1v-943q2 -427 -398 -452q-29 -3 -55 -2l-69 3q-66 4 -122 18l-63 16l1 167l51 -28q121 -66 231 -67q251 -1 270 303
q1 22 1 81v107zM256 490q-1 -63 11 -138q36 -262 204 -265q98 -1 165 113q49 83 64 200q5 43 5 97q0 46 -4 82q-7 55 -23 107q-27 82 -75 133q-62 66 -134 65q-129 0 -178 -156q-17 -49 -24 -102q-12 -76 -11 -136z" />
    <glyph glyph-name="h" unicode="h" horiz-adv-x="1063" 
d="M332 746q113 246 316 247q45 0 88 -13q54 -16 90 -54t51 -86.5t17 -94.5q1 -25 1 -74v-671h-153v597v52q0 48 -4 86q-13 135 -136 133q-44 0 -82.5 -20.5t-65.5 -51.5q-35 -38 -61 -83q-50 -83 -64 -184l-6 -48l-3 -51v-430h-153v1407h149v-698z" />
    <glyph glyph-name="i" unicode="i" horiz-adv-x="494" 
d="M329 0h-153v971h153v-971zM156 1224v183h183v-183h-183z" />
    <glyph glyph-name="j" unicode="j" horiz-adv-x="494" 
d="M331 -39l-3 -68q-14 -155 -91 -222q-42 -38 -94 -59t-112 -29q-40 -7 -78 -6l-36 1v109h21l54 -1q183 2 186 206v67v1012h153v-1010zM162 1224v183h183v-183h-183z" />
    <glyph glyph-name="k" unicode="k" horiz-adv-x="911" 
d="M895 0h-193l-385 503v0v-503h-153v1407h153v-858v0l357 422h176l-377 -430z" />
    <glyph glyph-name="l" unicode="l" horiz-adv-x="494" 
d="M323 0h-153v1407h153v-1407z" />
    <glyph glyph-name="m" unicode="m" horiz-adv-x="1554" 
d="M326 761q66 125 126 171q77 60 170 61q92 0 157 -61q59 -56 72 -154q2 -12 4 -37v0l12 29q104 221 289 223q105 -2 169 -73q59 -65 64 -174q1 -29 1 -72v-674h-153v615l-1 52q-6 200 -130 201q-75 -2 -130 -63q-35 -36 -57 -82q-20 -40 -33 -84q-18 -56 -25 -113t-6 -136
v-390h-153v605l-1 53q-1 49 -3 80q-4 56 -39.5 93t-89.5 37q-111 -1 -187 -145q-22 -39 -33 -82l-14 -61q-17 -85 -17 -199v-381h-153v971h147v-238z" />
    <glyph glyph-name="n" unicode="n" horiz-adv-x="1063" 
d="M331 746q89 182 207 228q46 19 108 19q109 1 179 -68q64 -63 69 -180q1 -25 1 -74v-671h-153v596v52q0 49 -4 87q-13 135 -136 133q-44 0 -82.5 -20.5t-65.5 -51.5q-101 -111 -125 -268l-6 -49l-3 -52v-427h-153v971h147v-262z" />
    <glyph glyph-name="o" unicode="o" 
d="M644 -5q-64 -18 -131 -17q-249 -1 -346 186q-37 66 -54 149.5t-16 176.5q-1 497 412 503q415 -6 420 -520q-2 -403 -285 -478zM764 460q2 444 -256 447q-242 -3 -246 -400q2 -188 37 -282q59 -160 214 -161q249 1 251 396z" />
    <glyph glyph-name="p" unicode="p" 
d="M315 -435h-153v1406h151v-186l17 36q88 172 261 172q192 0 280 -178q62 -127 64 -341q0 -83 -12 -157q-54 -334 -343 -339q-175 1 -252 165q-6 9 -13 31v-609zM770 473q-1 73 -12 154q-7 50 -22 96q-51 162 -182 161q-102 -3 -166 -112q-51 -87 -64 -195q-6 -39 -5 -81
q-1 -46 6 -90q17 -124 62 -206q65 -114 172 -113q82 -2 133 73q27 37 43.5 84.5t24.5 99.5q10 65 10 129z" />
    <glyph glyph-name="q" unicode="q" 
d="M697 145q-77 -165 -253 -167q-191 3 -281 167q-71 130 -72 334q0 92 14 178q11 77 44 147q85 187 284 189q170 -1 264 -173l17 -35v186h150v-1406h-153v611zM256 477q1 -150 38 -241q62 -148 174 -149q141 -3 209 204q17 50 24 113q6 47 6 95q0 42 -5 80q-18 122 -70 203
q-63 101 -160 102q-92 1 -146 -89q-44 -76 -58 -166q-13 -69 -12 -152z" />
    <glyph glyph-name="r" unicode="r" horiz-adv-x="684" 
d="M313 745q23 45 41 74q22 37 59 75q32 34 70 58q47 31 104 41l41 5v-178l-29 1q-36 0 -76 -9q-144 -30 -183 -175q-16 -53 -19 -115q-4 -43 -3 -63v-459h-153v971h148v-226v0z" />
    <glyph glyph-name="s" unicode="s" horiz-adv-x="721" 
d="M588 829q-119 53 -205 55q-168 -3 -168 -119q-2 -59 43 -95q29 -23 71 -45l83 -43l105 -57q68 -39 105 -80q64 -75 63 -178q0 -145 -113 -226q-89 -63 -249 -63q-59 0 -119.5 7t-104.5 21l-42 13v152l33 -18q133 -66 242 -66q197 0 200 152q-1 14 -3 26q-18 65 -116 126
q-53 33 -90 52l-115 62q-54 28 -93 75q-52 58 -53 147q-1 18 2 37q11 120 113 179q87 50 213 50q47 -1 103 -8q50 -7 98 -19l31 -8v-145z" />
    <glyph glyph-name="t" unicode="t" horiz-adv-x="702" 
d="M385 418l-1 -98l1 -71q1 -100 40 -140q44 -46 138 -45q44 -1 75 8l23 7l-1 -95l-37 -2l-106 -4q-70 -1 -128 15q-117 28 -145 129q-14 44 -14 102v66l7 586h-173l1 95h173l3 226l154 94l-4 -320h276l-1 -95h-276z" />
    <glyph glyph-name="u" unicode="u" horiz-adv-x="1063" 
d="M723 200q-19 -43 -51.5 -89t-66.5 -74q-65 -57 -175 -59q-184 -1 -243 156q-18 42 -21 86q-3 26 -5 91l-3 76v584h153v-559q-1 -31 2 -76q9 -232 158 -233q123 -3 199 141q53 100 60 248l3 67v412h153v-971h-148v237z" />
    <glyph glyph-name="v" unicode="v" horiz-adv-x="911" 
d="M527 0h-142l-367 971h168l278 -767v0l283 767h147z" />
    <glyph glyph-name="w" unicode="w" horiz-adv-x="1405" 
d="M1174 971h139l-245 -971h-146l-226 746v0l-215 -746h-146l-245 971h156l176 -766v0l216 766h127l222 -760v0z" />
    <glyph glyph-name="x" unicode="x" horiz-adv-x="920" 
d="M895 0h-182l-264 396v0l-260 -396h-164l343 515v0l-302 456h180l228 -341v0l224 341h161l-306 -462v0z" />
    <glyph glyph-name="y" unicode="y" horiz-adv-x="911" 
d="M743 971h154l-495 -1361h-136l133 383v0l-386 978h169l296 -764v0z" />
    <glyph glyph-name="z" unicode="z" horiz-adv-x="836" 
d="M760 0h-696v107l512 771v0l-477 -2v95h654v-83l-526 -795v0h533v-93z" />
    <glyph glyph-name="braceleft" unicode="{" horiz-adv-x="1024" 
d="M827 -430v-51q-162 6 -292 103q-140 104 -140 245q0 74 25 196q33 164 33 193q0 90 -69 164q-63 66 -157 96v49q226 71 226 260q0 29 -33 193q-25 123 -25 196q0 141 140 245q130 97 292 104v-52q-107 -24 -166 -108q-53 -75 -53 -170q0 -59 14.5 -174t14.5 -162
q0 -147 -120 -247q-64 -53 -198 -109q133 -58 198 -113q120 -102 120 -244q0 -47 -14.5 -161.5t-14.5 -174.5q0 -95 53 -170q59 -83 166 -108z" />
    <glyph glyph-name="bar" unicode="|" horiz-adv-x="682" 
d="M291 -377v2083h100v-2083h-100z" />
    <glyph glyph-name="braceright" unicode="}" horiz-adv-x="1024" 
d="M203 -481v51q107 25 166 108q53 75 53 170q0 60 -14.5 174.5t-14.5 161.5q0 142 121 244q65 55 197 113q-134 56 -197 109q-121 100 -121 247q0 47 14.5 162t14.5 174q0 95 -53 170q-59 84 -166 108v52q163 -7 293 -104q139 -104 139 -245q0 -73 -25 -196
q-32 -164 -32 -193q0 -189 225 -260v-49q-94 -30 -157 -96q-68 -74 -68 -164q0 -29 32 -193q25 -122 25 -196q0 -141 -139 -245q-130 -97 -293 -103z" />
    <glyph glyph-name="asciitilde" unicode="~" horiz-adv-x="1178" 
d="M113 330v112q0 94 41 160q56 88 174 88q54 0 103 -27q12 -7 79 -57l213 -157q86 -64 121 -64q98 0 98 154v86h123v-121q0 -77 -34 -140q-56 -104 -185 -104q-69 0 -180 82l-220 162q-80 59 -108 59q-102 0 -102 -137v-96h-123z" />
    <glyph glyph-name="nonbreakingspace" unicode="&#xa0;" horiz-adv-x="604" 
 />
    <glyph glyph-name="exclamdown" unicode="&#xa1;" horiz-adv-x="569" 
d="M273 733l30 -1005h-189l28 1005h131zM309 1117v-201h-201v201h201z" />
    <glyph glyph-name="cent" unicode="&#xa2;" horiz-adv-x="911" 
d="M519 75l27 -7q23 -5 66 -5l53 2q66 4 124 25l19 7v-84l-23 -7q-46 -14 -116 -21q-61 -8 -105 -7l-45 1v-175h-93v189l-27 7q-250 70 -299 364q-14 78 -13 165q-1 178 66 294q82 143 244 169l29 4v154h93v-154q21 -2 32 -4q49 -8 101 -32q56 -26 90 -60q39 -39 60 -96
q19 -51 22 -105l1 -24h-168l-1 24q-12 170 -116 206l-21 6v-836zM426 911l-23 -6q-24 -8 -46 -27q-103 -81 -102 -338q-1 -117 32 -223q14 -50 35 -85q27 -54 87 -105l17 -13v797z" />
    <glyph glyph-name="sterling" unicode="&#xa3;" horiz-adv-x="911" 
d="M367 121h513v-121h-676v623h-136v96h136v243v70q0 49 5 91t22 80t48 68q85 88 275 87q309 0 358 -265l4 -27h-188q0 15 -1 27q-13 170 -175 173q-175 -2 -182 -211l-2 -73l-1 -67v-196h233v-96h-233v-502z" />
    <glyph glyph-name="Euro" unicode="&#xa4;" horiz-adv-x="1100" 
d="M1047 981h-191q-6 281 -207 281q-255 0 -280 -449h448l-18 -92h-432v-10q0 -49 2 -86h409l-18 -95h-383l2 -10l4 -26q60 -394 336 -394q131 0 278 123v-155q-135 -88 -307 -88q-424 0 -489 550h-172l18 95h146v10q0 13 -1.5 32.5t-1.5 26.5v27h-122l18 92h111v12
q56 539 462 539q172 0 279 -106t109 -277z" />
    <glyph glyph-name="Euro" unicode="&#x20ac;" horiz-adv-x="1100" 
d="M1047 981h-191q-6 281 -207 281q-255 0 -280 -449h448l-18 -92h-432v-10q0 -49 2 -86h409l-18 -95h-383l2 -10l4 -26q60 -394 336 -394q131 0 278 123v-155q-135 -88 -307 -88q-424 0 -489 550h-172l18 95h146v10q0 13 -1.5 32.5t-1.5 26.5v27h-122l18 92h111v12
q56 539 462 539q172 0 279 -106t109 -277z" />
    <glyph glyph-name="yen" unicode="&#xa5;" 
d="M817 646v-98h-221v-98h221v-98h-221v-352h-167v352h-221v98h221v98h-221v98h221l-434 761h192l338 -601v0l334 601h171l-434 -761h221z" />
    <glyph glyph-name="brokenbar" unicode="&#xa6;" horiz-adv-x="530" 
d="M197 -279v736h139v-736h-139zM197 823v736h139v-736h-139z" />
    <glyph glyph-name="section" unicode="&#xa7;" horiz-adv-x="948" 
d="M744 1243q-31 18 -79 38q-92 37 -170 39q-41 0 -77 -9q-117 -27 -115 -121q-1 -45 28 -78q24 -31 58.5 -49t83.5 -37l96 -40l97 -40q47 -22 87 -48q110 -72 111 -192q0 -55 -25 -104q-20 -40 -51 -74q-26 -29 -61 -56l-17 -13v0l13 -10q96 -81 95 -187q-2 -161 -167 -239
q-52 -26 -117 -36q-52 -10 -112 -9q-65 -1 -128 10q-53 8 -104 23l-30 9l2 173l31 -22q120 -83 239 -84q89 1 145 34q75 45 76 123q-1 59 -51 98q-34 26 -83 49t-111 47q-89 33 -107 42q-120 49 -169 109q-48 59 -49 145q2 126 128 237l19 16v0l-20 17q-31 30 -50 67
q-22 45 -22 97q1 126 107 198q92 63 224 63q114 1 271 -39l33 -9l-1 -155zM300 941v0l-17 -16q-20 -20 -35 -47q-26 -42 -25 -85q0 -50 27 -89q16 -23 48 -47t68 -40l82 -36l98 -42l74 -31l18 -9v0l17 16q67 64 69 143q0 18 -6 37q-11 33 -36 59q-46 45 -126 80l-80 34
q-71 30 -87 36l-72 29z" />
    <glyph glyph-name="dieresis" unicode="&#xa8;" horiz-adv-x="614" 
d="M35 1161v180h185v-180h-185zM398 1161v180h185v-180h-185z" />
    <glyph glyph-name="copyright" unicode="&#xa9;" horiz-adv-x="1024" 
d="M97 1286q61 111 173.5 175.5t240.5 64.5t240 -64t176 -176t64 -240q0 -129 -64 -241t-175 -176t-239 -63q-198 -1 -339 138t-141 342q0 124 64 240zM104 1047q-1 -106 55 -205q52 -95 148 -150t205 -55q169 -1 288 120t120 290q-1 168 -120.5 287.5t-287.5 120.5
q-169 -1 -288 -119t-120 -289zM733 867l-18 -16q-82 -66 -179 -66q-113 0 -189.5 81t-76.5 194q-1 109 74.5 191t187.5 83q95 0 173 -59l21 -17l-61 -63l-24 23q-48 39 -108 41q-80 -1 -134.5 -60.5t-53.5 -140.5q-1 -80 52 -139t132 -59q66 -1 115 43l28 27z" />
    <glyph glyph-name="ordfeminine" unicode="&#xaa;" horiz-adv-x="532" 
d="M371 653q-50 -54 -93 -68q-30 -11 -60 -10q-65 0 -105 38q-45 43 -44 101q1 142 198 167q37 6 89 9l15 1v23l-1 37l-2 40q-10 87 -90 89l-27 -3q-58 -10 -63 -75l-2 -31h-103l3 30q17 136 198 131q38 0 73 -9q97 -24 105 -142q1 -20 1 -41v-354h-92v67v0zM371 839l-16 -1
l-52 -6q-134 -26 -131 -117q4 -83 79 -88q59 -2 99 71q22 41 21 126v15z" />
    <glyph glyph-name="guillemotleft" unicode="&#xab;" horiz-adv-x="721" 
d="M244 502l120 -384h-126l-171 384l171 393h126zM510 502l122 -384h-126l-171 384l171 393h126z" />
    <glyph glyph-name="logicalnot" unicode="&#xac;" horiz-adv-x="1176" 
d="M936 285v288h-821v140h946v-428h-125z" />
    <glyph glyph-name="sfthyphen" unicode="&#xad;" horiz-adv-x="836" 
d="M106 416v142h622v-142h-622z" />
    <glyph glyph-name="registered" unicode="&#xae;" horiz-adv-x="1024" 
d="M97 1286q61 111 173.5 175.5t240.5 64.5t240 -64t176 -176t64 -240q0 -129 -64 -241t-175 -176t-239 -63q-198 -1 -339 138t-141 342q0 124 64 240zM104 1047q-1 -106 55 -205q52 -95 148 -150t205 -55q169 -1 288 120t120 290q-1 168 -120.5 287.5t-287.5 120.5
q-169 -1 -288 -119t-120 -289zM352 1311h170q160 -6 160 -146q-2 -82 -57 -118l-27 -15l90 -224h-96l-80 207h-85v-207h-75v503zM427 1236v-146h99q78 0 81 73q2 72 -81 73h-99z" />
    <glyph glyph-name="glyph113" unicode="&#xaf;" horiz-adv-x="1024" 
d="M0 1812v103h1024v-103h-1024z" />
    <glyph glyph-name="degree" unicode="&#xb0;" horiz-adv-x="684" 
d="M500.5 932.5q-65.5 -66.5 -157.5 -64.5q-95 1 -160 65t-66 159q1 95 66.5 159t159.5 66q92 -2 157.5 -68t65.5 -157q0 -93 -65.5 -159.5zM472 1092q0 54 -39.5 93t-90.5 38q-52 1 -92.5 -39.5t-38.5 -91.5q-2 -52 37 -92t94 -38q53 -2 91.5 36.5t38.5 93.5z" />
    <glyph glyph-name="plusminus" unicode="&#xb1;" horiz-adv-x="1178" 
d="M1056 -229h-936v134h936v-134zM655 -10h-134v435h-401v134h401v399h134v-399h401v-134h-401v-435z" />
    <glyph glyph-name="twosuperior" unicode="&#xb2;" horiz-adv-x="721" 
d="M619 510v-99h-531v94l20 19q94 90 171 184l69 87q38 50 59 86q67 120 65 205q2 139 -131 144q-98 0 -119 -120l-3 -23h-134q1 21 4 31q5 29 18.5 60t35.5 54q69 79 209 77q120 -4 182 -64q73 -72 72 -178q-3 -130 -95 -261q-25 -34 -66 -83q-37 -44 -66 -74.5t-62 -61.5
l-73 -67l-11 -10h386z" />
    <glyph glyph-name="threesuperior" unicode="&#xb3;" horiz-adv-x="721" 
d="M495 858q111 -55 111 -205q-1 -46 -11 -88q-38 -163 -258 -168q-53 -1 -92.5 7.5t-75.5 31.5q-31 17 -51 42q-36 39 -44 98l-3 27h134q-1 -14 1 -23q5 -107 123 -104q142 2 143 169l-3 40q-17 134 -117 141l-37 2l-23 1v79h24q141 2 140 153q-1 167 -128 169l-23 -2
q-62 -14 -78 -72l-7 -28q-2 -7 -1 -22h-134l2 26q10 87 93 135q72 43 156 42q46 1 82 -9q174 -47 172 -230q-2 -136 -98 -188l-28 -12v0z" />
    <glyph glyph-name="acute" unicode="&#xb4;" horiz-adv-x="614" 
d="M349 1138h-128l83 273h179z" />
    <glyph glyph-name="mu" unicode="&#xb5;" horiz-adv-x="1063" 
d="M166 -416v1391h151v-553q0 -142 28 -210q44 -106 165 -106q144 0 193 187q28 104 28 313v369h152v-770q0 -121 80 -121q10 0 30 4v-94q-22 -8 -57 -8q-115 0 -161 59q-40 51 -40 164h-4q-4 -77 -62 -145q-73 -87 -192 -87q-101 0 -168 72v-465h-143z" />
    <glyph glyph-name="paragraph" unicode="&#xb6;" horiz-adv-x="1024" 
d="M586 -438v895q-170 20 -291 115q-162 128 -162 350q0 246 199 379q168 112 413 112h236v-76h-119v-1775h-76v1775h-124v-1775h-76z" />
    <glyph glyph-name="periodcentered" unicode="&#xb7;" horiz-adv-x="418" 
d="M107 553v203h203v-203h-203z" />
    <glyph glyph-name="periodcentered" unicode="&#x2219;" horiz-adv-x="418" 
d="M107 553v203h203v-203h-203z" />
    <glyph glyph-name="cedilla" unicode="&#xb8;" horiz-adv-x="614" 
d="M349 -118h18q184 -1 182 -179q0 -31 -3 -43q-33 -135 -192 -134q-64 -2 -114 19l-17 8v103l15 -14q46 -37 96 -35q42 -2 68.5 27t25.5 69q-3 75 -75 92l-26 4q-19 2 -32 2l-26 -1l-20 -1l49 234h87z" />
    <glyph glyph-name="onesuperior" unicode="&#xb9;" horiz-adv-x="721" 
d="M459 411h-116v763l-158 -107v108l182 120h92v-884z" />
    <glyph glyph-name="ordmasculine" unicode="&#xba;" horiz-adv-x="569" 
d="M357 584q-36 -10 -74 -9q-93 1 -145 45q-87 66 -90 238q-1 47 9 92q35 182 225 182q233 -6 237 -286q2 -224 -162 -262zM416 842q2 242 -134 238q-87 0 -114 -89q-12 -32 -14 -65q-3 -27 -3 -62q-1 -48 5 -87q19 -146 128 -150q132 4 132 215z" />
    <glyph glyph-name="guillemotright" unicode="&#xbb;" horiz-adv-x="721" 
d="M211 511l-122 384h127l170 -384l-170 -393h-127zM476 511l-119 384h127l170 -384l-170 -393h-127z" />
    <glyph glyph-name="onequarter" unicode="&#xbc;" horiz-adv-x="1671" 
d="M-40 411h-116v763l-158 -107v108l182 120h92v-884zM51 0l426 1298h116l-426 -1298h-116zM984 0h-116v247h-359v87l350 550h125v-544h152v-93h-152v-247zM868 340v380v0l-238 -380v0h238z" />
    <glyph glyph-name="onehalf" unicode="&#xbd;" horiz-adv-x="1671" 
d="M-40 411h-116v763l-158 -107v108l182 120h92v-884zM11 0l426 1298h116l-426 -1298h-116zM1068 99v-99h-531v94l20 19q94 90 171 184l69 87q38 50 59 86q67 120 65 205q2 139 -131 144q-98 0 -119 -120l-3 -23h-134q1 21 4 31q5 29 18.5 60t35.5 54q69 79 209 77
q120 -4 182 -64q73 -72 72 -178q-3 -130 -95 -261q-25 -34 -66 -83q-37 -44 -66 -74.5t-62 -61.5l-73 -67l-11 -10h386z" />
    <glyph glyph-name="threequarters" unicode="&#xbe;" horiz-adv-x="1671" 
d="M-4 858q111 -55 111 -205q-1 -46 -11 -88q-38 -163 -258 -168q-53 -1 -92.5 7.5t-75.5 31.5q-31 17 -51 42q-36 39 -44 98l-3 27h134q-1 -14 1 -23q5 -107 123 -104q142 2 143 169l-3 40q-17 134 -117 141l-37 2l-23 1v79h24q141 2 140 153q-1 167 -128 169l-23 -2
q-62 -14 -78 -72l-7 -28q-2 -7 -1 -22h-134l2 26q10 87 93 135q72 43 156 42q46 1 82 -9q174 -47 172 -230q-2 -136 -98 -188l-28 -12v0zM91 0l426 1298h116l-426 -1298h-116zM985 0h-116v247h-359v87l350 550h125v-544h152v-93h-152v-247zM869 340v380v0l-238 -380v0h238z
" />
    <glyph glyph-name="questiondown" unicode="&#xbf;" horiz-adv-x="836" 
d="M583 745v-82v-61q0 -32 -4 -58q-9 -66 -49 -104l-51 -49l-55 -61l-62 -69l-55 -64q-54 -59 -66 -75q-44 -57 -43 -124q-1 -83 65 -132q55 -42 144 -43q36 -1 83 9t90.5 28t78.5 43l22 16l1 -169l-27 -9q-37 -13 -78 -20q-48 -10 -94 -13l-54 -2l-53 2q-153 14 -230 81
q-99 88 -101 219q-1 45 12 88q15 56 48.5 103.5t68.5 84.5l78 82l66 71q34 35 49 53q42 50 55 108q6 24 7 52q1 22 1 51v44h153zM395 1129h201v-201h-201v201z" />
    <glyph glyph-name="Agrave" unicode="&#xc0;" horiz-adv-x="1178" 
d="M318 448l-146 -448h-152l474 1407h187l474 -1407h-177l-148 448v0h-512zM793 557v0l-217 694v0l-221 -694v0h438zM378 1823l86 -273h-126l-136 273h176z" />
    <glyph glyph-name="Aacute" unicode="&#xc1;" horiz-adv-x="1178" 
d="M318 448l-146 -448h-152l474 1407h187l474 -1407h-177l-148 448v0h-512zM793 557v0l-217 694v0l-221 -694v0h438zM434 1550h-128l83 273h179z" />
    <glyph glyph-name="Acircumflex" unicode="&#xc2;" horiz-adv-x="1178" 
d="M318 448l-146 -448h-152l474 1407h187l474 -1407h-177l-148 448v0h-512zM793 557v0l-217 694v0l-221 -694v0h438zM253 1550h-124l180 260h150l180 -260h-126l-128 158v0z" />
    <glyph glyph-name="Atilde" unicode="&#xc3;" horiz-adv-x="1178" 
d="M318 448l-146 -448h-152l474 1407h187l474 -1407h-177l-148 448v0h-512zM793 557v0l-217 694v0l-221 -694v0h438zM625 1725q-7 -187 -122 -187l-22 2q-26 5 -49 16t-50 28l-55 32l-33 19q-13 8 -23 7q-34 2 -39 -76l-1 -18h-91l2 25q2 43 5 58q18 139 111 139
q32 0 71 -20q26 -14 57 -32l51 -30l38 -18q10 -4 21 -4q23 -1 34 37l5 29v25h91z" />
    <glyph glyph-name="Adieresis" unicode="&#xc4;" horiz-adv-x="1178" 
d="M318 448l-146 -448h-152l474 1407h187l474 -1407h-177l-148 448v0h-512zM793 557v0l-217 694v0l-221 -694v0h438zM112 1571v180h185v-180h-185zM475 1571v180h185v-180h-185z" />
    <glyph glyph-name="Aring" unicode="&#xc5;" horiz-adv-x="1178" 
d="M318 448l-146 -448h-152l474 1407h187l474 -1407h-177l-148 448v0h-512zM793 557v0l-217 694v0l-221 -694v0h438zM495 1596q-51 -50 -122 -50q-73 0 -123.5 50.5t-50.5 123.5q0 70 50 121.5t124 52.5q73 -1 123 -50.5t51 -123.5q-1 -74 -52 -124zM460 1721q0 35 -27 60
t-61 26q-36 0 -61.5 -27t-24.5 -62q0 -86 89 -85q82 1 85 88z" />
    <glyph glyph-name="AE" unicode="&#xc6;" horiz-adv-x="1595" 
d="M1081 109h436v-109h-591l-46 616v0h-372v0l-340 -616h-167l798 1407h699v-109h-509l46 -573h439v-109h-433zM873 725v0l-38 509v0l-271 -509v0h309z" />
    <glyph glyph-name="Ccedilla" unicode="&#xc7;" horiz-adv-x="1102" 
d="M1015 70l-28 -16q-90 -48 -209 -68q-49 -9 -107 -8q-110 -1 -201 31q-196 65 -290 301q-72 181 -73 423q-1 78 9 151q66 545 513 545q71 0 139 -17q127 -32 204 -122q88 -104 97 -218q1 -13 1 -47h-179q0 27 -1 41q-8 122 -85 191q-67 62 -179 63q-227 0 -303 -269
q-24 -81 -32 -176q-6 -57 -5 -125q0 -503 248 -628q68 -36 157 -35q141 -2 286 110q17 12 38 31v-158zM388 -115h18q184 -1 182 -179q0 -31 -3 -43q-33 -135 -192 -134q-64 -2 -114 19l-17 8v103l15 -14q46 -37 96 -35q42 -2 68.5 27t25.5 69q-3 75 -75 92l-26 4
q-19 2 -32 2l-26 -1l-20 -1l49 234h87z" />
    <glyph glyph-name="Egrave" unicode="&#xc8;" horiz-adv-x="948" 
d="M341 109h532v-109h-699v1407h680v-109h-513v-511h486v-109h-486v-569zM295 1823l86 -273h-126l-136 273h176z" />
    <glyph glyph-name="Eacute" unicode="&#xc9;" horiz-adv-x="948" 
d="M341 109h532v-109h-699v1407h680v-109h-513v-511h486v-109h-486v-569zM354 1550h-128l83 273h179z" />
    <glyph glyph-name="Ecircumflex" unicode="&#xca;" horiz-adv-x="948" 
d="M341 109h532v-109h-699v1407h680v-109h-513v-511h486v-109h-486v-569zM140 1550h-124l180 260h150l180 -260h-126l-128 158v0z" />
    <glyph glyph-name="Edieresis" unicode="&#xcb;" horiz-adv-x="948" 
d="M341 109h532v-109h-699v1407h680v-109h-513v-511h486v-109h-486v-569zM29 1571v180h185v-180h-185zM392 1571v180h185v-180h-185z" />
    <glyph glyph-name="Igrave" unicode="&#xcc;" horiz-adv-x="532" 
d="M182 1407h167v-1407h-167v1407zM37 1823l86 -273h-126l-136 273h176z" />
    <glyph glyph-name="Iacute" unicode="&#xcd;" horiz-adv-x="532" 
d="M182 1407h167v-1407h-167v1407zM124 1550h-128l83 273h179z" />
    <glyph glyph-name="Icircumflex" unicode="&#xce;" horiz-adv-x="532" 
d="M182 1407h167v-1407h-167v1407zM-68 1550h-124l180 260h150l180 -260h-126l-128 158v0z" />
    <glyph glyph-name="Idieresis" unicode="&#xcf;" horiz-adv-x="532" 
d="M182 1407h167v-1407h-167v1407zM-209 1571v180h185v-180h-185zM154 1571v180h185v-180h-185z" />
    <glyph glyph-name="Eth" unicode="&#xd0;" horiz-adv-x="1214" 
d="M174 686h-174v106h174v615h208q87 0 114 -1q344 -12 478 -193q128 -173 131 -502q0 -102 -13 -199q-68 -502 -595 -511q-46 -2 -113 -1h-210v686zM341 109l108 -1q57 -1 81 1q266 13 351 252q26 73 35.5 154t9.5 169q0 110 -12 207q-30 242 -152 330q-104 75 -360 77h-61
v-506h293v-106h-293v-577z" />
    <glyph glyph-name="Ntilde" unicode="&#xd1;" horiz-adv-x="1290" 
d="M967 1407h145v-1407h-199l-592 1208v0v-1208h-145v1407h199l592 -1207v0v1207zM682 1725q-7 -187 -122 -187l-22 2q-26 5 -49 16t-50 28l-55 32l-33 19q-13 8 -23 7q-34 2 -39 -76l-1 -18h-91l2 25q2 43 5 58q18 139 111 139q32 0 71 -20q26 -14 57 -32l51 -30l38 -18
q10 -4 21 -4q23 -1 34 37l5 29v25h91z" />
    <glyph glyph-name="Ograve" unicode="&#xd2;" horiz-adv-x="1253" 
d="M1044 210q-140 -232 -418 -232q-96 0 -168 25q-195 65 -278 279q-37 93 -54 203.5t-16 226.5q-1 110 15.5 220t57.5 209q115 285 454 288q87 0 156 -23q188 -64 280 -281q69 -163 71 -428q-3 -324 -100 -487zM965 667q0 110 -13 224q-10 85 -32 164q-33 117 -105 184
q-89 81 -193 81q-96 0 -177 -67q-73 -60 -109 -157q-49 -136 -47 -381q0 -106 10.5 -196t35.5 -172q20 -71 59 -132t108 -96q59 -33 128 -32q155 2 242 144q68 111 85 280q7 77 8 156zM398 1823l86 -273h-126l-136 273h176z" />
    <glyph glyph-name="Oacute" unicode="&#xd3;" horiz-adv-x="1253" 
d="M1044 210q-140 -232 -418 -232q-96 0 -168 25q-195 65 -278 279q-37 93 -54 203.5t-16 226.5q-1 110 15.5 220t57.5 209q115 285 454 288q87 0 156 -23q188 -64 280 -281q69 -163 71 -428q-3 -324 -100 -487zM965 667q0 110 -13 224q-10 85 -32 164q-33 117 -105 184
q-89 81 -193 81q-96 0 -177 -67q-73 -60 -109 -157q-49 -136 -47 -381q0 -106 10.5 -196t35.5 -172q20 -71 59 -132t108 -96q59 -33 128 -32q155 2 242 144q68 111 85 280q7 77 8 156zM465 1550h-128l83 273h179z" />
    <glyph glyph-name="Ocircumflex" unicode="&#xd4;" horiz-adv-x="1253" 
d="M1044 210q-140 -232 -418 -232q-96 0 -168 25q-195 65 -278 279q-37 93 -54 203.5t-16 226.5q-1 110 15.5 220t57.5 209q115 285 454 288q87 0 156 -23q188 -64 280 -281q69 -163 71 -428q-3 -324 -100 -487zM965 667q0 110 -13 224q-10 85 -32 164q-33 117 -105 184
q-89 81 -193 81q-96 0 -177 -67q-73 -60 -109 -157q-49 -136 -47 -381q0 -106 10.5 -196t35.5 -172q20 -71 59 -132t108 -96q59 -33 128 -32q155 2 242 144q68 111 85 280q7 77 8 156zM291 1550h-124l180 260h150l180 -260h-126l-128 158v0z" />
    <glyph glyph-name="Otilde" unicode="&#xd5;" horiz-adv-x="1253" 
d="M1044 210q-140 -232 -418 -232q-96 0 -168 25q-195 65 -278 279q-37 93 -54 203.5t-16 226.5q-1 110 15.5 220t57.5 209q115 285 454 288q87 0 156 -23q188 -64 280 -281q69 -163 71 -428q-3 -324 -100 -487zM965 667q0 110 -13 224q-10 85 -32 164q-33 117 -105 184
q-89 81 -193 81q-96 0 -177 -67q-73 -60 -109 -157q-49 -136 -47 -381q0 -106 10.5 -196t35.5 -172q20 -71 59 -132t108 -96q59 -33 128 -32q155 2 242 144q68 111 85 280q7 77 8 156zM663 1725q-7 -187 -122 -187l-22 2q-26 5 -49 16t-50 28l-55 32l-33 19q-13 8 -23 7
q-34 2 -39 -76l-1 -18h-91l2 25q2 43 5 58q18 139 111 139q32 0 71 -20q26 -14 57 -32l51 -30l38 -18q10 -4 21 -4q23 -1 34 37l5 29v25h91z" />
    <glyph glyph-name="Odieresis" unicode="&#xd6;" horiz-adv-x="1253" 
d="M1044 210q-140 -232 -418 -232q-96 0 -168 25q-195 65 -278 279q-37 93 -54 203.5t-16 226.5q-1 110 15.5 220t57.5 209q115 285 454 288q87 0 156 -23q188 -64 280 -281q69 -163 71 -428q-3 -324 -100 -487zM965 667q0 110 -13 224q-10 85 -32 164q-33 117 -105 184
q-89 81 -193 81q-96 0 -177 -67q-73 -60 -109 -157q-49 -136 -47 -381q0 -106 10.5 -196t35.5 -172q20 -71 59 -132t108 -96q59 -33 128 -32q155 2 242 144q68 111 85 280q7 77 8 156zM150 1571v180h185v-180h-185zM513 1571v180h185v-180h-185z" />
    <glyph glyph-name="multiply" unicode="&#xd7;" horiz-adv-x="1178" 
d="M1062 104l-105 -105l-377 386v0l-373 -385l-91 93l373 384v0l-372 382l108 109l366 -380v0l366 380l96 -93l-371 -384v0z" />
    <glyph glyph-name="Oslash" unicode="&#xd8;" horiz-adv-x="1253" 
d="M994 1280v0q18 -21 26 -32q45 -60 73 -141q30 -90 44 -189q12 -90 12 -195q0 -133 -21 -257q-40 -227 -161 -348q-139 -140 -351 -140q-83 -1 -160.5 23t-128.5 66q-12 7 -31 26v0l-96 -166l-85 50l115 198v0l-27 38q-70 108 -89 305q-10 85 -9 172q1 285 86 466
q122 274 443 273q158 -3 254 -59l29 -19v0l90 141l80 -52zM376 227v0l28 -32q94 -109 214 -108q347 4 352 636q-1 221 -51 357l-20 49v0zM845 1223v0l-27 24q-92 74 -188 73q-53 0 -103 -21q-69 -28 -122 -89t-73 -131q-47 -151 -48 -395q-1 -62 6 -145q6 -98 23 -163
l12 -41v0z" />
    <glyph glyph-name="Ugrave" unicode="&#xd9;" horiz-adv-x="1253" 
d="M1091 527q0 -61 -1 -103q-15 -440 -464 -446q-268 1 -382 170q-42 59 -58 128t-17 150q-2 28 -1 101v880h167v-876l1 -76q0 -52 6 -97q17 -192 171 -249q56 -23 116 -22q53 -1 106 18q164 57 182 245q5 47 6 103l1 79v875h167v-880zM418 1823l86 -273h-126l-136 273h176z
" />
    <glyph glyph-name="Uacute" unicode="&#xda;" horiz-adv-x="1253" 
d="M1091 527q0 -61 -1 -103q-15 -440 -464 -446q-268 1 -382 170q-42 59 -58 128t-17 150q-2 28 -1 101v880h167v-876l1 -76q0 -52 6 -97q17 -192 171 -249q56 -23 116 -22q53 -1 106 18q164 57 182 245q5 47 6 103l1 79v875h167v-880zM475 1550h-128l83 273h179z" />
    <glyph glyph-name="Ucircumflex" unicode="&#xdb;" horiz-adv-x="1253" 
d="M1091 527q0 -61 -1 -103q-15 -440 -464 -446q-268 1 -382 170q-42 59 -58 128t-17 150q-2 28 -1 101v880h167v-876l1 -76q0 -52 6 -97q17 -192 171 -249q56 -23 116 -22q53 -1 106 18q164 57 182 245q5 47 6 103l1 79v875h167v-880zM291 1550h-124l180 260h150l180 -260
h-126l-128 158v0z" />
    <glyph glyph-name="Udieresis" unicode="&#xdc;" horiz-adv-x="1253" 
d="M1091 527q0 -61 -1 -103q-15 -440 -464 -446q-268 1 -382 170q-42 59 -58 128t-17 150q-2 28 -1 101v880h167v-876l1 -76q0 -52 6 -97q17 -192 171 -249q56 -23 116 -22q53 -1 106 18q164 57 182 245q5 47 6 103l1 79v875h167v-880zM150 1571v180h185v-180h-185z
M513 1571v180h185v-180h-185z" />
    <glyph glyph-name="Yacute" unicode="&#xdd;" 
d="M596 0h-167v650l-434 757h192l338 -598v0l334 598h171l-434 -757v-650zM392 1550h-128l83 273h179z" />
    <glyph glyph-name="Thorn" unicode="&#xde;" horiz-adv-x="1178" 
d="M335 0h-167v1407h167v-273h290l62 -1q61 -1 102 -6q109 -13 191 -90q78 -73 95 -188q8 -55 8 -114q0 -64 -9 -121q-19 -118 -96 -187q-83 -73 -193 -84q-42 -6 -100 -6l-55 -1h-295v-336zM335 445h201l51 1l85 2q81 3 147 59q81 65 85 226q3 266 -235 287l-76 4l-46 1
h-212v-580z" />
    <glyph glyph-name="germandbls" unicode="&#xdf;" horiz-adv-x="1063" 
d="M706 757q262 -53 262 -371q-2 -375 -350 -406q-26 -3 -47 -2q-23 -1 -49 2q-41 3 -77 9l-23 4v86l23 -4l59 -8l49 -3q250 4 250 327q-2 152 -61 235t-219 84h-19v86h25q88 -2 147 87q45 66 47 171q0 121 -46 188q-64 93 -163 95q-204 4 -195 -380v-79v-878h-153v959v75
q5 201 84 282q103 107 274 107q122 -3 201 -50q161 -96 163 -309q3 -228 -195 -299l-11 -4v0z" />
    <glyph glyph-name="agrave" unicode="&#xe0;" horiz-adv-x="948" 
d="M619 118q-68 -89 -165 -122q-53 -19 -106 -18q-108 -1 -184 69.5t-78 178.5q0 95 62.5 167t154.5 102q106 35 295 47l36 2v51l-1 66q0 42 -4 75q-17 174 -174 171q-27 0 -52 -5q-106 -19 -121 -138l-5 -45h-165l5 44q36 227 350 230q69 0 132 -17q172 -47 186 -254l2 -76
v-646h-153v138zM634 458l-38 -2q-60 -3 -96 -9q-253 -43 -249 -205q4 -151 153 -155q72 0 134 56q30 25 49.5 55t30.5 67.5t13 84.5q1 15 2 75zM267 1411l86 -273h-126l-136 273h176z" />
    <glyph glyph-name="aacute" unicode="&#xe1;" horiz-adv-x="948" 
d="M619 118q-68 -89 -165 -122q-53 -19 -106 -18q-108 -1 -184 69.5t-78 178.5q0 95 62.5 167t154.5 102q106 35 295 47l36 2v51l-1 66q0 42 -4 75q-17 174 -174 171q-27 0 -52 -5q-106 -19 -121 -138l-5 -45h-165l5 44q36 227 350 230q69 0 132 -17q172 -47 186 -254l2 -76
v-646h-153v138zM634 458l-38 -2q-60 -3 -96 -9q-253 -43 -249 -205q4 -151 153 -155q72 0 134 56q30 25 49.5 55t30.5 67.5t13 84.5q1 15 2 75zM313 1138h-128l83 273h179z" />
    <glyph glyph-name="acircumflex" unicode="&#xe2;" horiz-adv-x="948" 
d="M619 118q-68 -89 -165 -122q-53 -19 -106 -18q-108 -1 -184 69.5t-78 178.5q0 95 62.5 167t154.5 102q106 35 295 47l36 2v51l-1 66q0 42 -4 75q-17 174 -174 171q-27 0 -52 -5q-106 -19 -121 -138l-5 -45h-165l5 44q36 227 350 230q69 0 132 -17q172 -47 186 -254l2 -76
v-646h-153v138zM634 458l-38 -2q-60 -3 -96 -9q-253 -43 -249 -205q4 -151 153 -155q72 0 134 56q30 25 49.5 55t30.5 67.5t13 84.5q1 15 2 75zM140 1138h-124l180 260h150l180 -260h-126l-128 158v0z" />
    <glyph glyph-name="atilde" unicode="&#xe3;" horiz-adv-x="948" 
d="M619 118q-68 -89 -165 -122q-53 -19 -106 -18q-108 -1 -184 69.5t-78 178.5q0 95 62.5 167t154.5 102q106 35 295 47l36 2v51l-1 66q0 42 -4 75q-17 174 -174 171q-27 0 -52 -5q-106 -19 -121 -138l-5 -45h-165l5 44q36 227 350 230q69 0 132 -17q172 -47 186 -254l2 -76
v-646h-153v138zM634 458l-38 -2q-60 -3 -96 -9q-253 -43 -249 -205q4 -151 153 -155q72 0 134 56q30 25 49.5 55t30.5 67.5t13 84.5q1 15 2 75zM512 1325q-7 -187 -122 -187l-22 2q-26 5 -49 16t-50 28l-55 32l-33 19q-13 8 -23 7q-34 2 -39 -76l-1 -18h-91l2 25q2 43 5 58
q18 139 111 139q32 0 71 -20q26 -14 57 -32l51 -30l38 -18q10 -4 21 -4q23 -1 34 37l5 29v25h91z" />
    <glyph glyph-name="adieresis" unicode="&#xe4;" horiz-adv-x="948" 
d="M619 118q-68 -89 -165 -122q-53 -19 -106 -18q-108 -1 -184 69.5t-78 178.5q0 95 62.5 167t154.5 102q106 35 295 47l36 2v51l-1 66q0 42 -4 75q-17 174 -174 171q-27 0 -52 -5q-106 -19 -121 -138l-5 -45h-165l5 44q36 227 350 230q69 0 132 -17q172 -47 186 -254l2 -76
v-646h-153v138zM634 458l-38 -2q-60 -3 -96 -9q-253 -43 -249 -205q4 -151 153 -155q72 0 134 56q30 25 49.5 55t30.5 67.5t13 84.5q1 15 2 75zM-25 1161v180h185v-180h-185zM338 1161v180h185v-180h-185z" />
    <glyph glyph-name="aring" unicode="&#xe5;" horiz-adv-x="948" 
d="M619 118q-68 -89 -165 -122q-53 -19 -106 -18q-108 -1 -184 69.5t-78 178.5q0 95 62.5 167t154.5 102q106 35 295 47l36 2v51l-1 66q0 42 -4 75q-17 174 -174 171q-27 0 -52 -5q-106 -19 -121 -138l-5 -45h-165l5 44q36 227 350 230q69 0 132 -17q172 -47 186 -254l2 -76
v-646h-153v138zM634 458l-38 -2q-60 -3 -96 -9q-253 -43 -249 -205q4 -151 153 -155q72 0 134 56q30 25 49.5 55t30.5 67.5t13 84.5q1 15 2 75zM393 1158q-51 -50 -122 -50q-73 0 -123.5 50.5t-50.5 123.5q0 70 50 121.5t124 52.5q73 -1 123 -50.5t51 -123.5
q-1 -74 -52 -124zM358 1283q0 35 -27 60t-61 26q-36 0 -61.5 -27t-24.5 -62q0 -86 89 -85q82 1 85 88z" />
    <glyph glyph-name="ae" unicode="&#xe6;" horiz-adv-x="1489" 
d="M822 467q13 -118 74 -217q32 -55 77 -93q100 -92 238 -93q30 -1 67 6q50 7 84 24l23 12l-1 -86l-23 -8q-40 -14 -104 -23q-70 -12 -114 -11q-261 3 -388 198q-9 11 -22 36v0l-19 -37q-48 -87 -101 -125q-29 -23 -67 -38q-80 -34 -163 -34q-69 -1 -130 24
q-171 62 -171 259q-1 125 84 201q77 71 206 100q63 14 137 20q68 6 128 6h18v43q0 40 -1 68q-2 36 -9 70q-29 137 -187 138q-69 0 -120 -38q-55 -42 -65 -106l-2 -21h-165l5 29q23 112 133 172q88 48 218 50q48 0 91 -9q131 -26 179 -160v0l30 37q110 132 290 132
q318 -4 351 -367q4 -44 4 -96v-38l-587 -2zM655 493h-13q-54 0 -91 -3.5t-82.5 -12t-81.5 -22.5q-138 -46 -140 -191q-2 -79 54 -130q52 -47 134 -47q194 3 215 217l4 78l1 90v21zM1254 586v24l-2 79q-4 86 -51 151.5t-141 66.5q-149 -4 -207 -141q-17 -38 -25 -83
q-7 -34 -9 -59q-2 -13 -1 -39z" />
    <glyph glyph-name="ccedilla" unicode="&#xe7;" horiz-adv-x="872" 
d="M657 671v20q2 218 -172 216q-150 -1 -198 -165q-16 -51 -21 -107q-5 -39 -4 -80l3 -72q5 -74 23 -132q66 -223 244 -274q45 -14 99 -13q71 0 135 22l29 11v-86l-36 -10q-90 -23 -185 -23q-475 2 -477 543q-1 95 21 184q68 286 370 288q181 2 267 -104q30 -36 45.5 -83
t19.5 -98l2 -37h-165zM275 -118h18q184 -1 182 -179q0 -31 -3 -43q-33 -135 -192 -134q-64 -2 -114 19l-17 8v103l15 -14q46 -37 96 -35q42 -2 68.5 27t25.5 69q-3 75 -75 92l-26 4q-19 2 -32 2l-26 -1l-20 -1l49 234h87z" />
    <glyph glyph-name="egrave" unicode="&#xe8;" horiz-adv-x="920" 
d="M257 550q1 -72 15 -132q14 -70 42 -131q97 -226 319 -223q73 -1 136 20q15 4 46 17v-86q-39 -13 -59 -17q-81 -20 -182 -20q-48 -1 -90 5q-201 24 -305 185q-87 134 -87 353q2 179 57 288q31 66 93 112q94 71 245 72q286 0 336 -264q8 -46 10 -89v-39h-577zM668 696
l-1 22q-12 186 -195 189q-84 0 -141 -53t-67 -134l-3 -24h407zM313 1411l86 -273h-126l-136 273h176z" />
    <glyph glyph-name="eacute" unicode="&#xe9;" horiz-adv-x="920" 
d="M257 550q1 -72 15 -132q14 -70 42 -131q97 -226 319 -223q73 -1 136 20q15 4 46 17v-86q-39 -13 -59 -17q-81 -20 -182 -20q-48 -1 -90 5q-201 24 -305 185q-87 134 -87 353q2 179 57 288q31 66 93 112q94 71 245 72q286 0 336 -264q8 -46 10 -89v-39h-577zM668 696
l-1 22q-12 186 -195 189q-84 0 -141 -53t-67 -134l-3 -24h407zM299 1138h-128l83 273h179z" />
    <glyph glyph-name="ecircumflex" unicode="&#xea;" horiz-adv-x="920" 
d="M257 550q1 -72 15 -132q14 -70 42 -131q97 -226 319 -223q73 -1 136 20q15 4 46 17v-86q-39 -13 -59 -17q-81 -20 -182 -20q-48 -1 -90 5q-201 24 -305 185q-87 134 -87 353q2 179 57 288q31 66 93 112q94 71 245 72q286 0 336 -264q8 -46 10 -89v-39h-577zM668 696
l-1 22q-12 186 -195 189q-84 0 -141 -53t-67 -134l-3 -24h407zM126 1138h-124l180 260h150l180 -260h-126l-128 158v0z" />
    <glyph glyph-name="edieresis" unicode="&#xeb;" horiz-adv-x="920" 
d="M257 550q1 -72 15 -132q14 -70 42 -131q97 -226 319 -223q73 -1 136 20q15 4 46 17v-86q-39 -13 -59 -17q-81 -20 -182 -20q-48 -1 -90 5q-201 24 -305 185q-87 134 -87 353q2 179 57 288q31 66 93 112q94 71 245 72q286 0 336 -264q8 -46 10 -89v-39h-577zM668 696
l-1 22q-12 186 -195 189q-84 0 -141 -53t-67 -134l-3 -24h407zM-15 1161v180h185v-180h-185zM348 1161v180h185v-180h-185z" />
    <glyph glyph-name="igrave" unicode="&#xec;" horiz-adv-x="494" 
d="M323 0h-153v971h153v-971zM40 1411l86 -273h-126l-136 273h176z" />
    <glyph glyph-name="iacute" unicode="&#xed;" horiz-adv-x="494" 
d="M323 0h-153v971h153v-971zM86 1138h-128l83 273h179z" />
    <glyph glyph-name="icircumflex" unicode="&#xee;" horiz-adv-x="494" 
d="M323 0h-153v971h153v-971zM-87 1138h-124l180 260h150l180 -260h-126l-128 158v0z" />
    <glyph glyph-name="idieresis" unicode="&#xef;" horiz-adv-x="494" 
d="M323 0h-153v971h153v-971zM-250 1161v180h185v-180h-185zM113 1161v180h185v-180h-185z" />
    <glyph glyph-name="eth" unicode="&#xf0;" horiz-adv-x="1024" 
d="M668 1149q64 -60 113 -136q48 -74 79 -164q30 -84 46.5 -184t16.5 -197q0 -82 -12 -146q-65 -342 -396 -344q-342 1 -402 356q-13 66 -12 157q-1 82 12 156q23 149 117 245q98 98 250 101q59 0 113 -20q37 -14 69 -37l27 -21l-17 27q-30 46 -66 89q-41 48 -77 77l-21 16
v0l-183 -74l-32 80l129 53v0l-24 15q-108 63 -177 88l-27 9h274l25 -16q29 -19 47 -32l17 -13v0l163 69l32 -81l-112 -48v0zM758 472q0 62 -9 138q-7 57 -22.5 111.5t-47.5 99.5q-58 85 -173 86q-202 0 -235 -301q-6 -47 -5 -99q1 -187 35 -282q57 -159 212 -161
q48 -1 92 21q146 67 153 387z" />
    <glyph glyph-name="ntilde" unicode="&#xf1;" horiz-adv-x="1063" 
d="M331 746q89 182 207 228q46 19 108 19q109 1 179 -68q64 -63 69 -180q1 -25 1 -74v-671h-153v596v52q0 49 -4 87q-13 135 -136 133q-44 0 -82.5 -20.5t-65.5 -51.5q-101 -111 -125 -268l-6 -49l-3 -52v-427h-153v971h147v-262zM569 1325q-7 -187 -122 -187l-22 2
q-26 5 -49 16t-50 28l-55 32l-33 19q-13 8 -23 7q-34 2 -39 -76l-1 -18h-91l2 25q2 43 5 58q18 139 111 139q32 0 71 -20q26 -14 57 -32l51 -30l38 -18q10 -4 21 -4q23 -1 34 37l5 29v25h91z" />
    <glyph glyph-name="ograve" unicode="&#xf2;" 
d="M644 -5q-64 -18 -131 -17q-249 -1 -346 186q-37 66 -54 149.5t-16 176.5q-1 497 412 503q415 -6 420 -520q-2 -403 -285 -478zM764 460q2 444 -256 447q-242 -3 -246 -400q2 -188 37 -282q59 -160 214 -161q249 1 251 396zM335 1411l86 -273h-126l-136 273h176z" />
    <glyph glyph-name="oacute" unicode="&#xf3;" 
d="M644 -5q-64 -18 -131 -17q-249 -1 -346 186q-37 66 -54 149.5t-16 176.5q-1 497 412 503q415 -6 420 -520q-2 -403 -285 -478zM764 460q2 444 -256 447q-242 -3 -246 -400q2 -188 37 -282q59 -160 214 -161q249 1 251 396zM351 1138h-128l83 273h179z" />
    <glyph glyph-name="ocircumflex" unicode="&#xf4;" 
d="M644 -5q-64 -18 -131 -17q-249 -1 -346 186q-37 66 -54 149.5t-16 176.5q-1 497 412 503q415 -6 420 -520q-2 -403 -285 -478zM764 460q2 444 -256 447q-242 -3 -246 -400q2 -188 37 -282q59 -160 214 -161q249 1 251 396zM178 1138h-124l180 260h150l180 -260h-126
l-128 158v0z" />
    <glyph glyph-name="otilde" unicode="&#xf5;" 
d="M644 -5q-64 -18 -131 -17q-249 -1 -346 186q-37 66 -54 149.5t-16 176.5q-1 497 412 503q415 -6 420 -520q-2 -403 -285 -478zM764 460q2 444 -256 447q-242 -3 -246 -400q2 -188 37 -282q59 -160 214 -161q249 1 251 396zM550 1325q-7 -187 -122 -187l-22 2
q-26 5 -49 16t-50 28l-55 32l-33 19q-13 8 -23 7q-34 2 -39 -76l-1 -18h-91l2 25q2 43 5 58q18 139 111 139q32 0 71 -20q26 -14 57 -32l51 -30l38 -18q10 -4 21 -4q23 -1 34 37l5 29v25h91z" />
    <glyph glyph-name="odieresis" unicode="&#xf6;" 
d="M644 -5q-64 -18 -131 -17q-249 -1 -346 186q-37 66 -54 149.5t-16 176.5q-1 497 412 503q415 -6 420 -520q-2 -403 -285 -478zM764 460q2 444 -256 447q-242 -3 -246 -400q2 -188 37 -282q59 -160 214 -161q249 1 251 396zM37 1161v180h185v-180h-185zM400 1161v180h185
v-180h-185z" />
    <glyph glyph-name="divide" unicode="&#xf7;" horiz-adv-x="1178" 
d="M682 13h-186v186h186v-186zM1061 425h-944v134h944v-134zM682 785h-186v186h186v-186z" />
    <glyph glyph-name="oslash" unicode="&#xf8;" 
d="M785 903v0l26 -24q123 -130 123 -393q0 -98 -21 -187q-76 -319 -402 -321q-58 0 -114 16q-50 12 -101 41l-24 13v0l-86 -147l-72 40l97 158v0l-21 25q-72 93 -90 241q-6 42 -5 101q-3 524 411 527q45 0 104 -11q50 -10 81 -23l26 -13v0l78 129l67 -43zM337 151v0l19 -22
q59 -65 148 -65q206 -5 254 278q11 63 11 151q0 67 -8 123q-9 62 -36 124l-17 36v0zM659 851v0l-19 16q-59 41 -129 40q-156 -3 -214 -164q-21 -55 -28 -114q-10 -69 -9 -144q-1 -136 22 -212l12 -35v0z" />
    <glyph glyph-name="ugrave" unicode="&#xf9;" horiz-adv-x="1063" 
d="M723 200q-19 -43 -51.5 -89t-66.5 -74q-65 -57 -175 -59q-184 -1 -243 156q-18 42 -21 86q-3 26 -5 91l-3 76v584h153v-559q-1 -31 2 -76q9 -232 158 -233q123 -3 199 141q53 100 60 248l3 67v412h153v-971h-148v237zM344 1411l86 -273h-126l-136 273h176z" />
    <glyph glyph-name="uacute" unicode="&#xfa;" horiz-adv-x="1063" 
d="M723 200q-19 -43 -51.5 -89t-66.5 -74q-65 -57 -175 -59q-184 -1 -243 156q-18 42 -21 86q-3 26 -5 91l-3 76v584h153v-559q-1 -31 2 -76q9 -232 158 -233q123 -3 199 141q53 100 60 248l3 67v412h153v-971h-148v237zM370 1138h-128l83 273h179z" />
    <glyph glyph-name="ucircumflex" unicode="&#xfb;" horiz-adv-x="1063" 
d="M723 200q-19 -43 -51.5 -89t-66.5 -74q-65 -57 -175 -59q-184 -1 -243 156q-18 42 -21 86q-3 26 -5 91l-3 76v584h153v-559q-1 -31 2 -76q9 -232 158 -233q123 -3 199 141q53 100 60 248l3 67v412h153v-971h-148v237zM197 1138h-124l180 260h150l180 -260h-126l-128 158
v0z" />
    <glyph glyph-name="udieresis" unicode="&#xfc;" horiz-adv-x="1063" 
d="M723 200q-19 -43 -51.5 -89t-66.5 -74q-65 -57 -175 -59q-184 -1 -243 156q-18 42 -21 86q-3 26 -5 91l-3 76v584h153v-559q-1 -31 2 -76q9 -232 158 -233q123 -3 199 141q53 100 60 248l3 67v412h153v-971h-148v237zM35 1161v180h185v-180h-185zM398 1161v180h185v-180
h-185z" />
    <glyph glyph-name="yacute" unicode="&#xfd;" horiz-adv-x="911" 
d="M743 971h154l-495 -1361h-136l133 383v0l-386 978h169l296 -764v0zM294 1138h-128l83 273h179z" />
    <glyph glyph-name="thorn" unicode="&#xfe;" horiz-adv-x="987" 
d="M286 -435h-153v1842h153v-563l18 29q54 78 142 105q46 14 101 15q218 0 306 -211q53 -128 53 -298q-1 -77 -11 -147q-12 -76 -42 -144.5t-80 -119.5q-93 -95 -229 -95q-57 -1 -106 17q-42 13 -77 39t-58 60l-17 25v-554zM741 487q0 152 -41 251q-61 146 -191 146
q-142 1 -194 -173q-26 -80 -25 -212q-1 -412 226 -412q122 -2 185 149q38 92 40 251z" />
    <glyph glyph-name="ydieresis" unicode="&#xff;" horiz-adv-x="911" 
d="M743 971h154l-495 -1361h-136l133 383v0l-386 978h169l296 -764v0zM-20 1161v180h185v-180h-185zM343 1161v180h185v-180h-185z" />
    <glyph glyph-name="Abreve" unicode="&#x102;" horiz-adv-x="1178" 
d="M318 448l-146 -448h-152l474 1407h187l474 -1407h-177l-148 448v0h-512zM793 557v0l-217 694v0l-221 -694v0h438zM623 1786q-10 -110 -75 -177q-71 -73 -175 -71q-104 -1 -178 72q-69 68 -75 178l-1 22h91l2 -16q8 -58 53 -94t106 -34q133 2 160 125l3 19h91z" />
    <glyph glyph-name="abreve" unicode="&#x103;" horiz-adv-x="948" 
d="M619 118q-68 -89 -165 -122q-53 -19 -106 -18q-108 -1 -184 69.5t-78 178.5q0 95 62.5 167t154.5 102q106 35 295 47l36 2v51l-1 66q0 42 -4 75q-17 174 -174 171q-27 0 -52 -5q-106 -19 -121 -138l-5 -45h-165l5 44q36 227 350 230q69 0 132 -17q172 -47 186 -254l2 -76
v-646h-153v138zM634 458l-38 -2q-60 -3 -96 -9q-253 -43 -249 -205q4 -151 153 -155q72 0 134 56q30 25 49.5 55t30.5 67.5t13 84.5q1 15 2 75zM521 1386q-10 -110 -75 -177q-71 -73 -175 -71q-104 -1 -178 72q-69 68 -75 178l-1 22h91l2 -16q8 -58 53 -94t106 -34
q133 2 160 125l3 19h91z" />
    <glyph glyph-name="Aogonek" unicode="&#x104;" horiz-adv-x="1178" 
d="M318 448l-146 -448h-152l474 1407h187l474 -1407h-177l-148 448v0h-512zM793 557v0l-217 694v0l-221 -694v0h438zM752 -2q-27 -29 -53.5 -63.5t-45.5 -71.5t-23 -73l-2 -30q1 -127 104 -128q47 1 83 24l16 11v-99l-26 -6q-50 -11 -96 -11q-83 1 -138 44q-63 51 -61 129
q0 60 27 114q21 44 57 88q32 41 65 71l24 21h89z" />
    <glyph glyph-name="aogonek" unicode="&#x105;" horiz-adv-x="948" 
d="M619 118q-68 -89 -165 -122q-53 -19 -106 -18q-108 -1 -184 69.5t-78 178.5q0 95 62.5 167t154.5 102q106 35 295 47l36 2v51l-1 66q0 42 -4 75q-17 174 -174 171q-27 0 -52 -5q-106 -19 -121 -138l-5 -45h-165l5 44q36 227 350 230q69 0 132 -17q172 -47 186 -254l2 -76
v-646h-153v138zM634 458l-38 -2q-60 -3 -96 -9q-253 -43 -249 -205q4 -151 153 -155q72 0 134 56q30 25 49.5 55t30.5 67.5t13 84.5q1 15 2 75zM417 -2q-27 -29 -53.5 -63.5t-45.5 -71.5t-23 -73l-2 -30q1 -127 104 -128q47 1 83 24l16 11v-99l-26 -6q-50 -11 -96 -11
q-83 1 -138 44q-63 51 -61 129q0 60 27 114q21 44 57 88q32 41 65 71l24 21h89z" />
    <glyph glyph-name="Cacute" unicode="&#x106;" horiz-adv-x="1096" 
d="M1015 70l-28 -16q-90 -48 -209 -68q-49 -9 -107 -8q-110 -1 -201 31q-196 65 -290 301q-72 181 -73 423q-1 78 9 151q66 545 513 545q71 0 139 -17q127 -32 204 -122q88 -104 97 -218q1 -13 1 -47h-179q0 27 -1 41q-8 122 -85 191q-67 62 -179 63q-227 0 -303 -269
q-24 -81 -32 -176q-6 -57 -5 -125q0 -503 248 -628q68 -36 157 -35q141 -2 286 110q17 12 38 31v-158zM429 1550h-128l83 273h179z" />
    <glyph glyph-name="cacute" unicode="&#x107;" horiz-adv-x="870" 
d="M657 671v20q2 218 -172 216q-150 -1 -198 -165q-16 -51 -21 -107q-5 -39 -4 -80l3 -72q5 -74 23 -132q66 -223 244 -274q45 -14 99 -13q71 0 135 22l29 11v-86l-36 -10q-90 -23 -185 -23q-475 2 -477 543q-1 95 21 184q68 286 370 288q181 2 267 -104q30 -36 45.5 -83
t19.5 -98l2 -37h-165zM315 1138h-128l83 273h179z" />
    <glyph glyph-name="Ccaron" unicode="&#x10c;" horiz-adv-x="1096" 
d="M1015 70l-28 -16q-90 -48 -209 -68q-49 -9 -107 -8q-110 -1 -201 31q-196 65 -290 301q-72 181 -73 423q-1 78 9 151q66 545 513 545q71 0 139 -17q127 -32 204 -122q88 -104 97 -218q1 -13 1 -47h-179q0 27 -1 41q-8 122 -85 191q-67 62 -179 63q-227 0 -303 -269
q-24 -81 -32 -176q-6 -57 -5 -125q0 -503 248 -628q68 -36 157 -35q141 -2 286 110q17 12 38 31v-158zM523 1810h124l-180 -260h-150l-180 260h126l127 -157v0z" />
    <glyph glyph-name="ccaron" unicode="&#x10d;" horiz-adv-x="870" 
d="M657 671v20q2 218 -172 216q-150 -1 -198 -165q-16 -51 -21 -107q-5 -39 -4 -80l3 -72q5 -74 23 -132q66 -223 244 -274q45 -14 99 -13q71 0 135 22l29 11v-86l-36 -10q-90 -23 -185 -23q-475 2 -477 543q-1 95 21 184q68 286 370 288q181 2 267 -104q30 -36 45.5 -83
t19.5 -98l2 -37h-165zM404 1398h124l-180 -260h-150l-180 260h126l127 -157v0z" />
    <glyph glyph-name="Dcaron" unicode="&#x10e;" horiz-adv-x="1214" 
d="M174 1407h208q87 0 114 -1q344 -12 478 -193q128 -173 131 -502q0 -102 -13 -199q-68 -502 -595 -511q-46 -2 -113 -1h-210v1407zM341 109l108 -1q57 -1 81 1q266 13 351 252q26 73 35.5 154t9.5 169q0 110 -12 207q-30 242 -152 330q-104 75 -360 77h-61v-1189z
M438 1810h124l-180 -260h-150l-180 260h126l127 -157v0z" />
    <glyph glyph-name="dcaron" unicode="&#x10f;" horiz-adv-x="1021" 
d="M711 1407h153v-1407h-151v187l-17 -37q-93 -172 -272 -172q-59 -1 -113 20q-218 78 -220 484q-1 92 12 172q11 75 47 149q93 192 294 190q124 -1 200 -85q32 -35 53 -80l14 -31v610zM256 472q-1 -74 7 -127q11 -98 50 -168q51 -91 142 -90q72 -1 139 64q52 50 82 134
q19 52 26 109q5 38 5 80q-4 144 -50 254q-65 156 -189 156q-164 3 -202 -256q-10 -64 -10 -156zM1141 968h-131l22 439h185z" />
    <glyph glyph-name="Dslash" unicode="&#x110;" horiz-adv-x="1214" 
d="M174 686h-174v106h174v615h208q87 0 114 -1q344 -12 478 -193q128 -173 131 -502q0 -102 -13 -199q-68 -502 -595 -511q-46 -2 -113 -1h-210v686zM341 109l108 -1q57 -1 81 1q266 13 351 252q26 73 35.5 154t9.5 169q0 110 -12 207q-30 242 -152 330q-104 75 -360 77h-61
v-506h293v-106h-293v-577z" />
    <glyph glyph-name="dcroat" unicode="&#x111;" 
d="M445 1128v95h252v184h155v-184h131v-95h-131v-1128h-153v187l-17 -37q-92 -172 -266 -172q-205 -1 -277 193q-28 68 -38 146q-10 68 -10 165q-1 92 12 172q21 143 101 236q90 104 231 103q169 -2 248 -165l14 -31v331h-252zM256 473q0 -135 27 -225q45 -162 166 -161
q100 -1 171 108q52 81 68 199q5 38 5 80q0 45 -6 91q-44 319 -226 319q-120 2 -173 -161q-32 -100 -32 -250z" />
    <glyph glyph-name="Eogonek" unicode="&#x118;" horiz-adv-x="948" 
d="M341 109h532v-109h-699v1407h680v-109h-513v-511h486v-109h-486v-569zM547 -2q-27 -29 -53.5 -63.5t-45.5 -71.5t-23 -73l-2 -30q1 -127 104 -128q47 1 83 24l16 11v-99l-26 -6q-50 -11 -96 -11q-83 1 -138 44q-63 51 -61 129q0 60 27 114q21 44 57 88q32 41 65 71l24 21
h89z" />
    <glyph glyph-name="eogonek" unicode="&#x119;" horiz-adv-x="920" 
d="M257 550q1 -72 15 -132q14 -70 42 -131q97 -226 319 -223q73 -1 136 20q15 4 46 17v-86q-39 -13 -59 -17q-81 -20 -182 -20q-48 -1 -90 5q-201 24 -305 185q-87 134 -87 353q2 179 57 288q31 66 93 112q94 71 245 72q286 0 336 -264q8 -46 10 -89v-39h-577zM668 696
l-1 22q-12 186 -195 189q-84 0 -141 -53t-67 -134l-3 -24h407zM497 -2q-27 -29 -53.5 -63.5t-45.5 -71.5t-23 -73l-2 -30q1 -127 104 -128q47 1 83 24l16 11v-99l-26 -6q-50 -11 -96 -11q-83 1 -138 44q-63 51 -61 129q0 60 27 114q21 44 57 88q32 41 65 71l24 21h89z" />
    <glyph glyph-name="Ecaron" unicode="&#x11a;" horiz-adv-x="948" 
d="M341 109h532v-109h-699v1407h680v-109h-513v-511h486v-109h-486v-569zM438 1810h124l-180 -260h-150l-180 260h126l127 -157v0z" />
    <glyph glyph-name="ecaron" unicode="&#x11b;" horiz-adv-x="920" 
d="M257 550q1 -72 15 -132q14 -70 42 -131q97 -226 319 -223q73 -1 136 20q15 4 46 17v-86q-39 -13 -59 -17q-81 -20 -182 -20q-48 -1 -90 5q-201 24 -305 185q-87 134 -87 353q2 179 57 288q31 66 93 112q94 71 245 72q286 0 336 -264q8 -46 10 -89v-39h-577zM668 696
l-1 22q-12 186 -195 189q-84 0 -141 -53t-67 -134l-3 -24h407zM438 1398h124l-180 -260h-150l-180 260h126l127 -157v0z" />
    <glyph glyph-name="Gbreve" unicode="&#x11e;" horiz-adv-x="1248" 
d="M938 1027q0 19 -1 33q-2 60 -27 112q-70 150 -258 148q-155 -1 -244 -112q-119 -145 -121 -475q-1 -114 13 -212q44 -316 226 -398q76 -37 168 -36q55 -1 102 13q60 16 115 56l23 17v506h-328v109h495v-677q-51 -36 -77 -51q-97 -57 -224 -73q-65 -10 -131 -9
q-180 -1 -291 75q-140 95 -196 230q-40 88 -57.5 208.5t-16.5 242.5q1 236 65 390q40 100 108 169q71 74 162.5 105t196.5 31q76 0 149 -16q282 -61 322 -332l6 -54h-179zM673 1798q-10 -110 -75 -177q-71 -73 -175 -71q-104 -1 -178 72q-69 68 -75 178l-1 22h91l2 -16
q8 -58 53 -94t106 -34q133 2 160 125l3 19h91z" />
    <glyph glyph-name="gbreve" unicode="&#x11f;" horiz-adv-x="1021" 
d="M695 140q-84 -164 -254 -162q-209 3 -292 197q-30 65 -43 141q-16 81 -15 179q1 199 71 328q90 168 275 170q171 2 257 -168l17 -36l1 181l152 1v-943q2 -427 -398 -452q-29 -3 -55 -2l-69 3q-66 4 -122 18l-63 16l1 167l51 -28q121 -66 231 -67q251 -1 270 303
q1 22 1 81v107zM256 490q-1 -63 11 -138q36 -262 204 -265q98 -1 165 113q49 83 64 200q5 43 5 97q0 46 -4 82q-7 55 -23 107q-27 82 -75 133q-62 66 -134 65q-129 0 -178 -156q-17 -49 -24 -102q-12 -76 -11 -136zM560 1386q-10 -110 -75 -177q-71 -73 -175 -71
q-104 -1 -178 72q-69 68 -75 178l-1 22h91l2 -16q8 -58 53 -94t106 -34q133 2 160 125l3 19h91z" />
    <glyph glyph-name="Idotaccent" unicode="&#x130;" horiz-adv-x="529" 
d="M182 1407h167v-1407h-167v1407zM-41 1571v180h185v-180h-185z" />
    <glyph glyph-name="dotlessi" unicode="&#x131;" horiz-adv-x="494" 
d="M323 0h-153v971h153v-971z" />
    <glyph glyph-name="Lacute" unicode="&#x139;" horiz-adv-x="836" 
d="M835 111v-111h-660v1407h167v-1298zM137 1550h-128l83 273h179z" />
    <glyph glyph-name="lacute" unicode="&#x13a;" horiz-adv-x="494" 
d="M323 0h-153v1407h153v-1407zM125 1550h-128l83 273h179z" />
    <glyph glyph-name="Lcaron" unicode="&#x13d;" horiz-adv-x="836" 
d="M835 111v-111h-660v1407h167v-1298zM863 968h-131l22 439h185z" />
    <glyph glyph-name="lcaron" unicode="&#x13e;" horiz-adv-x="494" 
d="M323 0h-153v1407h153v-1407zM566 968h-131l22 439h185z" />
    <glyph glyph-name="Ldot" unicode="&#x13f;" horiz-adv-x="836" 
d="M835 111v-111h-660v1407h167v-1298zM394 596v180h185v-180h-185z" />
    <glyph glyph-name="ldot" unicode="&#x140;" horiz-adv-x="494" 
d="M323 0h-153v1407h153v-1407zM189 533v180h185v-180h-185z" />
    <glyph glyph-name="Lslash" unicode="&#x141;" horiz-adv-x="836" 
d="M835 111v-111h-660l-2 575l-172 -148v130l174 152v0v698h167v-560v0l254 211v-128l-254 -215v-606z" />
    <glyph glyph-name="lslash" unicode="&#x142;" horiz-adv-x="494" 
d="M323 873v0l164 139v-117l-164 -138v0v-757h-153v642l-164 -148v119l164 134v0v660h153v-534z" />
    <glyph glyph-name="Nacute" unicode="&#x143;" horiz-adv-x="1290" 
d="M967 1407h145v-1407h-199l-592 1208v0v-1208h-145v1407h199l592 -1207v0v1207zM505 1550h-128l83 273h179z" />
    <glyph glyph-name="nacute" unicode="&#x144;" horiz-adv-x="1059" 
d="M331 746q89 182 207 228q46 19 108 19q109 1 179 -68q64 -63 69 -180q1 -25 1 -74v-671h-153v596v52q0 49 -4 87q-13 135 -136 133q-44 0 -82.5 -20.5t-65.5 -51.5q-101 -111 -125 -268l-6 -49l-3 -52v-427h-153v971h147v-262zM349 1138h-128l83 273h179z" />
    <glyph glyph-name="Ncaron" unicode="&#x147;" horiz-adv-x="1285" 
d="M967 1407h145v-1407h-199l-592 1208v0v-1208h-145v1407h199l592 -1207v0v1207zM606 1810h124l-180 -260h-150l-180 260h126l127 -157v0z" />
    <glyph glyph-name="ncaron" unicode="&#x148;" horiz-adv-x="1059" 
d="M331 746q89 182 207 228q46 19 108 19q109 1 179 -68q64 -63 69 -180q1 -25 1 -74v-671h-153v596v52q0 49 -4 87q-13 135 -136 133q-44 0 -82.5 -20.5t-65.5 -51.5q-101 -111 -125 -268l-6 -49l-3 -52v-427h-153v971h147v-262zM463 1398h124l-180 -260h-150l-180 260h126
l127 -157v0z" />
    <glyph glyph-name="Odblacute" unicode="&#x150;" horiz-adv-x="1248" 
d="M1044 210q-140 -232 -418 -232q-96 0 -168 25q-195 65 -278 279q-37 93 -54 203.5t-16 226.5q-1 110 15.5 220t57.5 209q115 285 454 288q87 0 156 -23q188 -64 280 -281q69 -163 71 -428q-3 -324 -100 -487zM965 667q0 110 -13 224q-10 85 -32 164q-33 117 -105 184
q-89 81 -193 81q-96 0 -177 -67q-73 -60 -109 -157q-49 -136 -47 -381q0 -106 10.5 -196t35.5 -172q20 -71 59 -132t108 -96q59 -33 128 -32q155 2 242 144q68 111 85 280q7 77 8 156zM644 1550h-122l89 273h173zM384 1550h-122l89 273h173z" />
    <glyph glyph-name="odblacute" unicode="&#x151;" horiz-adv-x="1021" 
d="M644 -5q-64 -18 -131 -17q-249 -1 -346 186q-37 66 -54 149.5t-16 176.5q-1 497 412 503q415 -6 420 -520q-2 -403 -285 -478zM764 460q2 444 -256 447q-242 -3 -246 -400q2 -188 37 -282q59 -160 214 -161q249 1 251 396zM517 1138h-122l89 273h173zM257 1138h-122
l89 273h173z" />
    <glyph glyph-name="OE" unicode="&#x152;" horiz-adv-x="1784" 
d="M992 0v235l-17 -32q-131 -227 -359 -225q-75 -1 -142 21q-364 111 -366 717q-1 87 9 170q9 90 30.5 171.5t63.5 152.5q46 81 114 132q63 48 146 70q63 17 136 17q59 0 110 -12q158 -38 260 -215l15 -28v233h717v-109h-550v-507h522v-109h-522v-573h569v-109h-736z
M994 667q-4 514 -240 624q-61 29 -128 29q-147 1 -239 -129q-68 -96 -88 -264q-13 -95 -12 -192q-1 -104 13 -209q55 -440 345 -439q64 -1 124.5 29t105 87.5t69.5 127.5q48 134 50 336z" />
    <glyph glyph-name="oe" unicode="&#x153;" horiz-adv-x="1567" 
d="M915 462q19 -199 154 -311q100 -87 216 -87q74 0 148 31l24 11l1 -86l-30 -10q-106 -33 -193 -32q-65 -1 -125 13q-144 29 -258 186l-21 30v0q-10 -26 -16 -37q-93 -189 -320 -192q-330 -1 -392 357q-13 69 -12 154q0 87 14 170q11 74 42.5 140t93.5 114q56 44 128 63
q66 17 138 17q207 -4 303 -155l18 -31v0l24 44q25 42 66 73q89 70 214 69q310 -2 343 -371q5 -52 5 -101v-33l-567 -1zM748 466q2 437 -250 441q-166 2 -213 -174q-29 -107 -29 -226q0 -62 9 -140q31 -300 241 -303q238 -2 242 402zM1327 578l1 37q-1 31 -4.5 75t-11.5 76
q-35 142 -175 141q-177 -1 -216 -224q-8 -38 -9 -77l-1 -24z" />
    <glyph glyph-name="Racute" unicode="&#x154;" horiz-adv-x="1096" 
d="M342 0h-167v1407h136h129q215 -2 318 -40q73 -28 122 -77q95 -96 96 -250q-3 -258 -276 -325l-55 -12v0l49 -9q159 -40 206 -176q16 -47 25 -87l15 -76l74 -355h-173l-57 288l-15 69q-27 126 -68 178q-58 74 -161 95q-50 9 -100 9h-58h-40v-639zM342 748l55 1
q398 5 400 287q-5 254 -297 261q-39 1 -82 1h-76v-550zM349 1550h-128l83 273h179z" />
    <glyph glyph-name="racute" unicode="&#x155;" horiz-adv-x="681" 
d="M313 745q23 45 41 74q22 37 59 75q32 34 70 58q47 31 104 41l41 5v-178l-29 1q-36 0 -76 -9q-144 -30 -183 -175q-16 -53 -19 -115q-4 -43 -3 -63v-459h-153v971h148v-226v0zM228 1138h-128l83 273h179z" />
    <glyph glyph-name="Rcaron" unicode="&#x158;" horiz-adv-x="1096" 
d="M342 0h-167v1407h136h129q215 -2 318 -40q73 -28 122 -77q95 -96 96 -250q-3 -258 -276 -325l-55 -12v0l49 -9q159 -40 206 -176q16 -47 25 -87l15 -76l74 -355h-173l-57 288l-15 69q-27 126 -68 178q-58 74 -161 95q-50 9 -100 9h-58h-40v-639zM342 748l55 1
q398 5 400 287q-5 254 -297 261q-39 1 -82 1h-76v-550zM438 1810h124l-180 -260h-150l-180 260h126l127 -157v0z" />
    <glyph glyph-name="rcaron" unicode="&#x159;" horiz-adv-x="681" 
d="M313 745q23 45 41 74q22 37 59 75q32 34 70 58q47 31 104 41l41 5v-178l-29 1q-36 0 -76 -9q-144 -30 -183 -175q-16 -53 -19 -115q-4 -43 -3 -63v-459h-153v971h148v-226v0zM314 1398h124l-180 -260h-150l-180 260h126l127 -157v0z" />
    <glyph glyph-name="Sacute" unicode="&#x15a;" horiz-adv-x="983" 
d="M808 1242q-153 77 -309 78q-103 0 -167 -55q-71 -61 -69 -158q0 -109 70 -169q29 -26 101 -65l124 -69l136 -76q81 -46 135 -104q50 -54 73 -128q17 -56 17 -116q1 -202 -154 -310q-132 -92 -341 -92q-127 -1 -292 34l-35 8v177l27 -16q160 -90 326 -94q208 1 267 147
q23 53 23 118q1 44 -8 70q-30 99 -277 233l-137 74q-78 42 -135 98q-48 45 -71 102q-29 66 -28 143q-2 178 138 276q116 82 307 81q51 0 109 -5q81 -7 154 -22l37 -8v-163zM292 1550h-128l83 273h179z" />
    <glyph glyph-name="sacute" unicode="&#x15b;" horiz-adv-x="718" 
d="M588 829q-119 53 -205 55q-168 -3 -168 -119q-2 -59 43 -95q29 -23 71 -45l83 -43l105 -57q68 -39 105 -80q64 -75 63 -178q0 -145 -113 -226q-89 -63 -249 -63q-59 0 -119.5 7t-104.5 21l-42 13v152l33 -18q133 -66 242 -66q197 0 200 152q-1 14 -3 26q-18 65 -116 126
q-53 33 -90 52l-115 62q-54 28 -93 75q-52 58 -53 147q-1 18 2 37q11 120 113 179q87 50 213 50q47 -1 103 -8q50 -7 98 -19l31 -8v-145zM178 1138h-128l83 273h179z" />
    <glyph glyph-name="Scedilla" unicode="&#x15e;" horiz-adv-x="983" 
d="M808 1242q-153 77 -309 78q-103 0 -167 -55q-71 -61 -69 -158q0 -109 70 -169q29 -26 101 -65l124 -69l136 -76q81 -46 135 -104q50 -54 73 -128q17 -56 17 -116q1 -202 -154 -310q-132 -92 -341 -92q-127 -1 -292 34l-35 8v177l27 -16q160 -90 326 -94q208 1 267 147
q23 53 23 118q1 44 -8 70q-30 99 -277 233l-137 74q-78 42 -135 98q-48 45 -71 102q-29 66 -28 143q-2 178 138 276q116 82 307 81q51 0 109 -5q81 -7 154 -22l37 -8v-163zM274 -115h18q184 -1 182 -179q0 -31 -3 -43q-33 -135 -192 -134q-64 -2 -114 19l-17 8v103l15 -14
q46 -37 96 -35q42 -2 68.5 27t25.5 69q-3 75 -75 92l-26 4q-19 2 -32 2l-26 -1l-20 -1l49 234h87z" />
    <glyph glyph-name="scedilla" unicode="&#x15f;" horiz-adv-x="718" 
d="M588 829q-119 53 -205 55q-168 -3 -168 -119q-2 -59 43 -95q29 -23 71 -45l83 -43l105 -57q68 -39 105 -80q64 -75 63 -178q0 -145 -113 -226q-89 -63 -249 -63q-59 0 -119.5 7t-104.5 21l-42 13v152l33 -18q133 -66 242 -66q197 0 200 152q-1 14 -3 26q-18 65 -116 126
q-53 33 -90 52l-115 62q-54 28 -93 75q-52 58 -53 147q-1 18 2 37q11 120 113 179q87 50 213 50q47 -1 103 -8q50 -7 98 -19l31 -8v-145zM174 -118h18q184 -1 182 -179q0 -31 -3 -43q-33 -135 -192 -134q-64 -2 -114 19l-17 8v103l15 -14q46 -37 96 -35q42 -2 68.5 27
t25.5 69q-3 75 -75 92l-26 4q-19 2 -32 2l-26 -1l-20 -1l49 234h87z" />
    <glyph glyph-name="Scaron" unicode="&#x160;" horiz-adv-x="987" 
d="M808 1242q-153 77 -309 78q-103 0 -167 -55q-71 -61 -69 -158q0 -109 70 -169q29 -26 101 -65l124 -69l136 -76q81 -46 135 -104q50 -54 73 -128q17 -56 17 -116q1 -202 -154 -310q-132 -92 -341 -92q-127 -1 -292 34l-35 8v177l27 -16q160 -90 326 -94q208 1 267 147
q23 53 23 118q1 44 -8 70q-30 99 -277 233l-137 74q-78 42 -135 98q-48 45 -71 102q-29 66 -28 143q-2 178 138 276q116 82 307 81q51 0 109 -5q81 -7 154 -22l37 -8v-163zM438 1810h124l-180 -260h-150l-180 260h126l127 -157v0z" />
    <glyph glyph-name="scaron" unicode="&#x161;" horiz-adv-x="721" 
d="M588 829q-119 53 -205 55q-168 -3 -168 -119q-2 -59 43 -95q29 -23 71 -45l83 -43l105 -57q68 -39 105 -80q64 -75 63 -178q0 -145 -113 -226q-89 -63 -249 -63q-59 0 -119.5 7t-104.5 21l-42 13v152l33 -18q133 -66 242 -66q197 0 200 152q-1 14 -3 26q-18 65 -116 126
q-53 33 -90 52l-115 62q-54 28 -93 75q-52 58 -53 147q-1 18 2 37q11 120 113 179q87 50 213 50q47 -1 103 -8q50 -7 98 -19l31 -8v-145zM288 1398h124l-180 -260h-150l-180 260h126l127 -157v0z" />
    <glyph glyph-name="Tcedilla" unicode="&#x162;" horiz-adv-x="832" 
d="M500 0h-167v1298h-331v109h829v-109h-331v-1298zM204 -118h18q184 -1 182 -179q0 -31 -3 -43q-33 -135 -192 -134q-64 -2 -114 19l-17 8v103l15 -14q46 -37 96 -35q42 -2 68.5 27t25.5 69q-3 75 -75 92l-26 4q-19 2 -32 2l-26 -1l-20 -1l49 234h87z" />
    <glyph glyph-name="tcedilla" unicode="&#x163;" horiz-adv-x="700" 
d="M385 418l-1 -98l1 -71q1 -100 40 -140q44 -46 138 -45q44 -1 75 8l23 7l-1 -95l-37 -2l-106 -4q-70 -1 -128 15q-117 28 -145 129q-14 44 -14 102v66l7 586h-173l1 95h173l3 226l154 94l-4 -320h276l-1 -95h-276zM285 -118h18q184 -1 182 -179q0 -31 -3 -43
q-33 -135 -192 -134q-64 -2 -114 19l-17 8v103l15 -14q46 -37 96 -35q42 -2 68.5 27t25.5 69q-3 75 -75 92l-26 4q-19 2 -32 2l-26 -1l-20 -1l49 234h87z" />
    <glyph glyph-name="Tcaron" unicode="&#x164;" horiz-adv-x="832" 
d="M500 0h-167v1298h-331v109h829v-109h-331v-1298zM338 1810h124l-180 -260h-150l-180 260h126l127 -157v0z" />
    <glyph glyph-name="tcaron" unicode="&#x165;" horiz-adv-x="700" 
d="M385 418l-1 -98l1 -71q1 -100 40 -140q44 -46 138 -45q44 -1 75 8l23 7l-1 -95l-37 -2l-106 -4q-70 -1 -128 15q-117 28 -145 129q-14 44 -14 102v66l7 586h-173l1 95h173l3 226l154 94l-4 -320h276l-1 -95h-276zM841 968h-131l22 439h185z" />
    <glyph glyph-name="Uring" unicode="&#x16e;" horiz-adv-x="1248" 
d="M1091 527q0 -61 -1 -103q-15 -440 -464 -446q-268 1 -382 170q-42 59 -58 128t-17 150q-2 28 -1 101v880h167v-876l1 -76q0 -52 6 -97q17 -192 171 -249q56 -23 116 -22q53 -1 106 18q164 57 182 245q5 47 6 103l1 79v875h167v-880zM544 1567q-51 -50 -122 -50
q-73 0 -123.5 50.5t-50.5 123.5q0 70 50 121.5t124 52.5q73 -1 123 -50.5t51 -123.5q-1 -74 -52 -124zM509 1692q0 35 -27 60t-61 26q-36 0 -61.5 -27t-24.5 -62q0 -86 89 -85q82 1 85 88z" />
    <glyph glyph-name="uring" unicode="&#x16f;" horiz-adv-x="1059" 
d="M723 200q-19 -43 -51.5 -89t-66.5 -74q-65 -57 -175 -59q-184 -1 -243 156q-18 42 -21 86q-3 26 -5 91l-3 76v584h153v-559q-1 -31 2 -76q9 -232 158 -233q123 -3 199 141q53 100 60 248l3 67v412h153v-971h-148v237zM449 1158q-51 -50 -122 -50q-73 0 -123.5 50.5
t-50.5 123.5q0 70 50 121.5t124 52.5q73 -1 123 -50.5t51 -123.5q-1 -74 -52 -124zM414 1283q0 35 -27 60t-61 26q-36 0 -61.5 -27t-24.5 -62q0 -86 89 -85q82 1 85 88z" />
    <glyph glyph-name="Udblacute" unicode="&#x170;" horiz-adv-x="1248" 
d="M1091 527q0 -61 -1 -103q-15 -440 -464 -446q-268 1 -382 170q-42 59 -58 128t-17 150q-2 28 -1 101v880h167v-876l1 -76q0 -52 6 -97q17 -192 171 -249q56 -23 116 -22q53 -1 106 18q164 57 182 245q5 47 6 103l1 79v875h167v-880zM612 1550h-122l89 273h173zM352 1550
h-122l89 273h173z" />
    <glyph glyph-name="udblacute" unicode="&#x171;" horiz-adv-x="1059" 
d="M723 200q-19 -43 -51.5 -89t-66.5 -74q-65 -57 -175 -59q-184 -1 -243 156q-18 42 -21 86q-3 26 -5 91l-3 76v584h153v-559q-1 -31 2 -76q9 -232 158 -233q123 -3 199 141q53 100 60 248l3 67v412h153v-971h-148v237zM512 1138h-122l89 273h173zM252 1138h-122l89 273
h173z" />
    <glyph glyph-name="Ydieresis" unicode="&#x178;" 
d="M596 0h-167v650l-434 757h192l338 -598v0l334 598h171l-434 -757v-650zM37 1571v180h185v-180h-185zM400 1571v180h185v-180h-185z" />
    <glyph glyph-name="Zacute" unicode="&#x179;" horiz-adv-x="987" 
d="M932 109v-109h-883v120l667 1180v0h-632v107h819v-119l-667 -1181v0zM329 1550h-128l83 273h179z" />
    <glyph glyph-name="zacute" unicode="&#x17a;" horiz-adv-x="832" 
d="M760 0h-696v107l512 771v0l-477 -2v95h654v-83l-526 -795v0h533v-93zM292 1138h-128l83 273h179z" />
    <glyph glyph-name="Zdot" unicode="&#x17b;" horiz-adv-x="987" 
d="M932 109v-109h-883v120l667 1180v0h-632v107h819v-119l-667 -1181v0zM242 1578v180h185v-180h-185z" />
    <glyph glyph-name="zdot" unicode="&#x17c;" horiz-adv-x="832" 
d="M760 0h-696v107l512 771v0l-477 -2v95h654v-83l-526 -795v0h533v-93zM156 1161v180h185v-180h-185z" />
    <glyph glyph-name="Zcaron" unicode="&#x17d;" horiz-adv-x="987" 
d="M932 109v-109h-883v120l667 1180v0h-632v107h819v-119l-667 -1181v0zM448 1810h124l-180 -260h-150l-180 260h126l127 -157v0z" />
    <glyph glyph-name="zcaron" unicode="&#x17e;" horiz-adv-x="836" 
d="M760 0h-696v107l512 771v0l-477 -2v95h654v-83l-526 -795v0h533v-93zM345 1398h124l-180 -260h-150l-180 260h126l127 -157v0z" />
    <glyph glyph-name="florin" unicode="&#x192;" horiz-adv-x="684" 
d="M227 0h-160l154 876h-174l18 95h173l8 44l9 50q8 45 17 78q36 135 114 198q98 82 285 82l58 -2q32 -4 73 -11l24 -5l-20 -109l-27 6q-42 8 -79 11q-16 1 -37 1l-48 -2q-142 -13 -183 -163q-11 -37 -15 -70l-10 -61l-8 -47h278l-18 -95h-278z" />
    <glyph glyph-name="circumflex" unicode="&#x2c6;" horiz-adv-x="614" 
d="M176 1138h-124l180 260h150l180 -260h-126l-128 158v0z" />
    <glyph glyph-name="caron" unicode="&#x2c7;" horiz-adv-x="614" 
d="M438 1398h124l-180 -260h-150l-180 260h126l127 -157v0z" />
    <glyph glyph-name="macron" unicode="&#x2c9;" horiz-adv-x="614" 
d="M48 1138v122h515v-122h-515z" />
    <glyph glyph-name="breve" unicode="&#x2d8;" horiz-adv-x="614" 
d="M558 1386q-10 -110 -75 -177q-71 -73 -175 -71q-104 -1 -178 72q-69 68 -75 178l-1 22h91l2 -16q8 -58 53 -94t106 -34q133 2 160 125l3 19h91z" />
    <glyph glyph-name="dotaccent" unicode="&#x2d9;" horiz-adv-x="614" 
d="M214 1161v180h185v-180h-185z" />
    <glyph glyph-name="ring" unicode="&#x2da;" horiz-adv-x="614" 
d="M429 1158q-51 -50 -122 -50q-73 0 -123.5 50.5t-50.5 123.5q0 70 50 121.5t124 52.5q73 -1 123 -50.5t51 -123.5q-1 -74 -52 -124zM394 1283q0 35 -27 60t-61 26q-36 0 -61.5 -27t-24.5 -62q0 -86 89 -85q82 1 85 88z" />
    <glyph glyph-name="ogonek" unicode="&#x2db;" horiz-adv-x="614" 
d="M457 -2q-27 -29 -53.5 -63.5t-45.5 -71.5t-23 -73l-2 -30q1 -127 104 -128q47 1 83 24l16 11v-99l-26 -6q-50 -11 -96 -11q-83 1 -138 44q-63 51 -61 129q0 60 27 114q21 44 57 88q32 41 65 71l24 21h89z" />
    <glyph glyph-name="tilde" unicode="&#x2dc;" horiz-adv-x="614" 
d="M548 1325q-7 -187 -122 -187l-22 2q-26 5 -49 16t-50 28l-55 32l-33 19q-13 8 -23 7q-34 2 -39 -76l-1 -18h-91l2 25q2 43 5 58q18 139 111 139q32 0 71 -20q26 -14 57 -32l51 -30l38 -18q10 -4 21 -4q23 -1 34 37l5 29v25h91z" />
    <glyph glyph-name="hungarumlaut" unicode="&#x2dd;" horiz-adv-x="614" 
d="M497 1138h-122l89 273h173zM237 1138h-122l89 273h173z" />
    <glyph glyph-name="pi" unicode="&#x3c0;" horiz-adv-x="1171" 
d="M315 829h-133l49 153h998l-44 -153h-132l-243 -829h-192l253 829h-366l-245 -829h-192z" />
    <glyph glyph-name="endash" unicode="&#x2013;" 
d="M107 416v142h811v-142h-811z" />
    <glyph glyph-name="emdash" unicode="&#x2014;" horiz-adv-x="1405" 
d="M108 416v142h1189v-142h-1189z" />
    <glyph glyph-name="quoteleft" unicode="&#x2018;" horiz-adv-x="418" 
d="M175 1407h132l-21 -439h-186z" />
    <glyph glyph-name="quoteright" unicode="&#x2019;" horiz-adv-x="418" 
d="M242 968h-131l22 439h185z" />
    <glyph glyph-name="quotesinglbase" unicode="&#x201a;" horiz-adv-x="418" 
d="M242 -236h-131l22 439h185z" />
    <glyph glyph-name="quotedblleft" unicode="&#x201c;" horiz-adv-x="721" 
d="M175 1407h132l-21 -439h-186zM477 1407h132l-22 -439h-185z" />
    <glyph glyph-name="quotedblright" unicode="&#x201d;" horiz-adv-x="721" 
d="M243 968h-131l22 439h185zM546 968h-132l22 439h185z" />
    <glyph glyph-name="quotedblbase" unicode="&#x201e;" horiz-adv-x="721" 
d="M242 -236h-131l22 439h185zM545 -236h-132l22 439h185z" />
    <glyph glyph-name="dagger" unicode="&#x2020;" horiz-adv-x="1024" 
d="M590 0h-157v780h-353v120h353v507h157v-505h353v-122h-353v-780z" />
    <glyph glyph-name="daggerdbl" unicode="&#x2021;" horiz-adv-x="1063" 
d="M609 0h-157v649h-353v120h353v144h-353v120h353v374h157v-374h353v-120h-353v-144h353v-120h-353v-649z" />
    <glyph glyph-name="bullet" unicode="&#x2022;" horiz-adv-x="1024" 
d="M512 369q-152 0 -261.5 108t-109.5 260q0 154 109 263.5t262 109.5t262 -109.5t109 -263.5q0 -152 -109.5 -260t-261.5 -108z" />
    <glyph glyph-name="ellipsis" unicode="&#x2026;" horiz-adv-x="1405" 
d="M304 0h-186v186h186v-186zM795 0h-186v186h186v-186zM1286 0h-186v186h186v-186z" />
    <glyph glyph-name="perthousand" unicode="&#x2030;" horiz-adv-x="2392" 
d="M1605 318.5q-5 -50.5 -15 -93.5q-51 -210 -219 -242q-27 -6 -57 -5q-193 2 -266 178q-28 64 -39 173q-6 51 -5 103q-3 400 246 449q31 6 58 6t57 -6q250 -49 245 -468q0 -44 -5 -94.5zM1480 420q-1 58 -3 101q-18 286 -174 286q-130 4 -159 -200q-7 -41 -8 -85l-2 -74
l3 -97q2 -46 7 -79q30 -214 167 -214q129 4 159 204l8 80zM2325 318.5q-5 -50.5 -15 -93.5q-51 -209 -218 -242q-26 -6 -57 -5q-194 2 -267 178q-28 64 -39 173q-6 51 -5 103q-2 268 99 373q78 85 206 82q26 0 56 -6q250 -52 245 -463q0 -49 -5 -99.5zM2200 421l-3 100
q-18 286 -174 286q-76 2 -118 -71q-17 -26 -24 -55q-17 -57 -25 -159l-2 -71l3 -100q1 -49 7 -79q33 -214 166 -214q154 4 168 284q2 42 2 79zM679 0h-115l424 1295h115zM658.5 749.5q-4.5 -52.5 -15.5 -94.5q-49 -210 -219 -242q-27 -6 -58 -5q-240 3 -291 263
q-10 42 -13 88q-6 51 -5 112q-1 53 4 102q19 294 242 338q31 6 58 6t57 -6q250 -49 245 -467q0 -42 -4.5 -94.5zM533 850q-2 220 -51 308q-42 79 -126 79q-154 5 -167 -285l-2 -90l2 -81q16 -292 174 -293q130 4 160 204l8 80z" />
    <glyph glyph-name="guilsinglleft" unicode="&#x2039;" horiz-adv-x="455" 
d="M237 118l-170 393l170 384h127l-119 -384l119 -393h-127z" />
    <glyph glyph-name="guilsinglright" unicode="&#x203a;" horiz-adv-x="455" 
d="M218 895l170 -393l-170 -384h-127l120 384l-120 393h127z" />
    <glyph glyph-name="franc" unicode="&#x20a3;" horiz-adv-x="1548" 
d="M341 0h-167v1407h681v-109h-514v-511h486v-109h-486v-678zM1183 745q23 45 41 74q22 37 59 75q32 34 70 58q47 31 104 41l41 5v-178l-29 1q-36 0 -76 -9q-144 -30 -183 -175q-16 -53 -19 -115q-4 -43 -3 -63v-459h-153v971h148v-226v0z" />
    <glyph glyph-name="trademark" unicode="&#x2122;" horiz-adv-x="1253" 
d="M517 1388v-89h-152v-518h-89v518h-152v89h393zM585 1388h163l111 -479v0l107 479h163v-607h-89v547h-7l-122 -547h-108l-122 547h-7v-547h-89v607z" />
    <glyph glyph-name="Omega" unicode="&#x2126;" horiz-adv-x="1511" 
d="M115 167h398q-369 137 -369 612q-1 101 21 193q49 214 207 340t378 126q129 0 240 -43q372 -144 373 -619q-1 -126 -29 -227q-22 -77 -62 -148q-60 -107 -136 -162q-41 -31 -134 -72h394v-167h-565v167q63 37 101 67q158 117 208 334q20 86 20 191q0 122 -32 231
q-24 82 -79 151q-115 144 -297 144q-101 0 -179 -43q-114 -62 -176 -208q-51 -122 -50 -270q-1 -90 18 -178q17 -95 54 -162q61 -120 177 -203q33 -25 80 -54v-167h-561v167z" />
    <glyph glyph-name="partialdiff" unicode="&#x2202;" horiz-adv-x="1020" 
d="M182 1041q16 161 95 253q108 128 276 130q218 0 319 -209q73 -151 75 -395q0 -179 -41 -355q-40 -171 -126 -299q-70 -105 -191 -158q-81 -37 -172 -36q-163 -2 -269.5 107.5t-105.5 267.5q2 212 197 382q143 124 389 209q38 13 117 36l-7 46q-10 65 -30.5 122t-67.5 97
q-52 44 -110 45q-176 1 -206 -280h-145zM754 834l-65 -20q-190 -66 -336 -202q-119 -111 -120 -267q-1 -49 13 -93q40 -140 169 -140q172 -3 269 257q70 185 72 391q0 26 -2 74z" />
    <glyph glyph-name="Delta" unicode="&#x2206;" horiz-adv-x="1511" 
d="M658 1410h195l584 -1410h-1363zM348 167v0h806v0l-402 1037v0z" />
    <glyph glyph-name="product" unicode="&#x220f;" horiz-adv-x="1473" 
d="M1302 1410v-1410h-195v1243h-732v-1243h-195v1410h1122z" />
    <glyph glyph-name="summation" unicode="&#x2211;" horiz-adv-x="2039" 
d="M1022 510l-586 696v187h1182v-163h-998v0l612 -720l-612 -748v0h998v-163h-1198v187z" />
    <glyph glyph-name="minus" unicode="&#x2212;" horiz-adv-x="1178" 
d="M1059 425h-942v134h942v-134z" />
    <glyph glyph-name="fraction" unicode="&#x2215;" horiz-adv-x="432" 
d="M-55 0l426 1298h116l-426 -1298h-116z" />
    <glyph glyph-name="radical" unicode="&#x221a;" horiz-adv-x="1473" 
d="M1346 1550h384v-86h-282v0l-556 -1825h-75l-571 824l-146 -106l-44 97l299 195l509 -753v0z" />
    <glyph glyph-name="infinity" unicode="&#x221e;" horiz-adv-x="2039" 
d="M1167 876q96 69 210 69q150 -2 260.5 -108t110.5 -261q-1 -155 -106.5 -261.5t-261.5 -106.5q-119 -1 -216 68q-67 48 -145 175l-40 -59q-134 -189 -319 -189q-110 -1 -200 59q-168 106 -169 311q-1 151 109 262t262 112q107 0 196 -59q69 -46 115 -110l46 -68
q84 120 148 166zM939 576q-28 52 -51 91q-86 140 -223 140q-95 -1 -165 -69q-68 -64 -69 -163q1 -101 68 -166t164 -66q94 -1 168 75q43 44 108 158zM1094 576q40 -71 80 -120q80 -109 204 -108q95 -1 163 65.5t67 160.5q1 93 -66 162.5t-161 68.5q-97 -1 -175 -73
q-43 -40 -112 -156z" />
    <glyph glyph-name="integral" unicode="&#x222b;" horiz-adv-x="2039" 
d="M487 -168l31 -4q43 -6 89 -5q299 -2 337 348q9 80 9 154v626q0 130 12 260q8 100 33 188q25 97 85 171q126 159 374 161q43 0 81 -5l14 -2v-140l-20 3q-30 4 -63 4q-98 0 -170 -30q-165 -69 -193 -332q-21 -182 -20 -261v-517q0 -327 -27 -422q-73 -255 -257 -316
q-89 -31 -208 -30q-52 0 -84 5l-23 4v140z" />
    <glyph glyph-name="approxequal" unicode="&#x2248;" horiz-adv-x="2039" 
d="M417 415q30 50 63 85q102 114 283 115q112 -2 256 -72q174 -83 267 -82q123 -1 232 100l22 21l108 -88q-48 -57 -82 -86q-106 -95 -271 -96q-110 0 -304 88q-158 67 -236 66q-65 0 -123 -33q-53 -28 -84 -73l-32 -49l-121 69zM409 730q29 55 69 96q107 113 266 113
q103 -2 274 -68q58 -24 124 -47q106 -40 174 -39q103 0 199 95l22 23l107 -89q-147 -179 -336 -178q-85 -1 -167 34l-134 58q-62 26 -121 44t-118 18q-160 -2 -254 -168l-122 76z" />
    <glyph glyph-name="notequal" unicode="&#x2260;" horiz-adv-x="2039" 
d="M1176 828v0l314 369h165l-313 -369v0h313v-135h-430v0l-236 -277v0h666v-135h-782v0l-324 -374h-165l323 374v0h-323v135h439v0l236 277v0h-675v135h792z" />
    <glyph glyph-name="lessequal" unicode="&#x2264;" horiz-adv-x="2039" 
d="M1654 135v-135h-1269v135h1269zM1654 1123v-134l-967 -299l967 -305v-137l-1269 395v96z" />
    <glyph glyph-name="greaterequal" unicode="&#x2265;" horiz-adv-x="2039" 
d="M1654 135v-135h-1269v135h1269zM1654 725v-93l-1269 -384v130l965 301l-965 306v138z" />
    <glyph glyph-name="lozenge" unicode="&#x25ca;" horiz-adv-x="2039" 
d="M1020 1387l635 -705l-635 -705l-635 705zM495 682l525 -595l525 595l-525 595z" />
    <glyph glyph-name="apple" unicode="&#xf000;" horiz-adv-x="1024" 
d="M128 0v1597h768v-1597h-768zM256 128h512v1341h-512v-1341z" />
    <glyph glyph-name="fi" unicode="&#xf001;" horiz-adv-x="1139" 
d="M389 0h-153v876h-173v95h173v44v50q2 194 78 272q85 86 269 86l58 -2q31 -4 74 -11l25 -5v-109l-29 6q-41 8 -82 11l-54 2q-18 0 -30 -1q-145 -13 -153 -164l-3 -68v-64v-47h276v-95h-276v-876zM964 0h-153v971h153v-971zM791 1224v183h183v-183h-183z" />
    <glyph glyph-name="fl" unicode="&#xf002;" horiz-adv-x="1139" 
d="M389 0h-153v876h-173v95h173v44v50q2 194 78 272q85 86 269 86l58 -2q31 -4 74 -11l25 -5v-109l-29 6q-41 8 -82 11l-54 2q-18 0 -30 -1q-145 -13 -153 -164l-3 -68v-64v-47h276v-95h-276v-876zM964 0h-153v1407h153v-1407z" />
    <glyph glyph-name="middot" unicode="&#xf004;" horiz-adv-x="418" 
d="M241 968h-131l22 439h185z" />
    <glyph glyph-name="currency" horiz-adv-x="1024" 
d="M934 250l-137 137q-74 -48 -106 -62q-81 -36 -179 -36q-143 0 -285 98l-137 -137l-63 63l137 138q-94 128 -94 278q0 145 94 287l-137 137l65 64l135 -138q135 99 285 99q145 0 285 -99l135 138l65 -64l-137 -137q94 -142 94 -287q0 -150 -94 -278l137 -138zM164 729
q0 -144 102.5 -245t245.5 -101t245.5 101t102.5 245q0 146 -102 250t-246 104t-246 -104t-102 -250z" />
    <glyph glyph-name="percentpermilslash" horiz-adv-x="1022" 
d="M128 0v1597h768v-1597h-768zM256 128h512v1341h-512v-1341z" />
    <glyph glyph-name="inferior0" horiz-adv-x="1022" 
d="M128 0v1597h768v-1597h-768zM256 128h512v1341h-512v-1341z" />
    <glyph glyph-name="dotlessj" horiz-adv-x="1022" 
d="M128 0v1597h768v-1597h-768zM256 128h512v1341h-512v-1341z" />
    <glyph glyph-name="inferior4" horiz-adv-x="718" 
d="M538 411h-116v247h-359v87l350 550h125v-544h152v-93h-152v-247zM422 751v380v0l-238 -380v0h238z" />
    <glyph glyph-name="pcfractionbar" horiz-adv-x="227" 
d="M-40 0h-116l424 1295h115z" />
    <glyph glyph-name="Mac Standard Name" horiz-adv-x="1360" 
d="M402 887q-60 81 -87 159q-17 45 -16 103q1 166 129 257q89 65 224 67q136 -1 231.5 -86.5t97.5 -223.5q2 -194 -191 -330q-33 -24 -77 -51l262 -317l19 57q7 26 15 63l13 81l4 37h186l-12 -83q-13 -78 -37 -145q-15 -43 -39 -95l-28 -59l266 -321h-233l-142 168
q-29 -31 -44 -44q-32 -32 -64 -54q-135 -100 -319 -101q-196 1 -311 111q-126 120 -124 306q-2 239 264 397l64 36zM561 692l-56 -38q-94 -66 -134 -111q-60 -69 -60 -157q0 -92 52 -154q78 -100 211 -97q155 2 276 128l32 35zM610 908q33 19 55 35q53 37 92 95
q36 53 38 118q1 66 -44.5 109t-112.5 42q-66 0 -110 -42.5t-43 -110.5q0 -78 76 -180z" />
    </font>
</defs>
</svg>
